<?xml version="1.0" encoding="utf-8"?>
<!-- Generator: Adobe Illustrator 17.0.2, SVG Export Plug-In . SVG Version: 6.00 Build 0)  -->
<!DOCTYPE svg PUBLIC "-//W3C//DTD SVG 1.1//EN" "http://www.w3.org/Graphics/SVG/1.1/DTD/svg11.dtd">
<svg version="1.1" id="Layer_1" xmlns="http://www.w3.org/2000/svg" xmlns:xlink="http://www.w3.org/1999/xlink" x="0px" y="0px"
	 width="37px" height="61px" viewBox="0 0 37 61" enable-background="new 0 0 37 61" xml:space="preserve">
<polygon opacity="0.4" fill="#999999" points="33,29 33,33 33,37 29,37 29,33 25,33 25,29 21,29 21,25 21,21 21,17 21,13 21,9 21,5 
	21,1 17,1 17,5 17,9 17,13 17,17 17,21 17,25 17,29 13,29 13,33 9,33 9,37 5,37 5,33 5,29 1,29 1,33 1,37 1,41 5,41 9,41 13,41 
	13,45 17,45 17,49 17,53 17,57 13,57 13,61 17,61 21,61 25,61 25,57 21,57 21,53 21,49 21,45 25,45 25,41 29,41 33,41 37,41 37,37 
	37,33 37,29 "/>
<rect x="32" y="28" fill="#C6CCD0" width="4" height="4"/>
<polygon fill="#93928A" points="32,32 32,36 28,36 24,36 24,40 28,40 32,40 36,40 36,36 36,32 "/>
<polygon fill="#6D6C66" points="20,36 20,40 20,44 24,44 24,40 24,36 "/>
<rect x="16" y="36" fill="#93928A" width="4" height="4"/>
<polygon fill="#6D6C66" points="12,36 12,40 12,44 16,44 16,40 16,36 "/>
<rect x="24" y="32" fill="#6D6C66" width="4" height="4"/>
<polygon fill="#82817A" points="16,40 16,44 16,48 16,52 16,56 20,56 20,52 20,48 20,44 20,40 "/>
<polygon fill="#93928A" points="20,56 16,56 12,56 12,60 16,60 20,60 24,60 24,56 "/>
<rect x="16" y="28" fill="#6D6C66" width="4" height="4"/>
<rect x="16" fill="#82817A" width="4" height="4"/>
<rect x="8" y="32" fill="#6D6C66" width="4" height="4"/>
<polygon fill="#82817A" points="20,28 20,32 16,32 16,28 12,28 12,32 12,36 16,36 20,36 24,36 24,32 24,28 "/>
<rect x="16" y="28" fill="#82817A" width="4" height="4"/>
<polygon fill="#6D6C66" points="16,4 16,8 16,12 16,16 16,20 16,24 16,28 16,32 20,32 20,28 20,24 20,20 20,16 20,12 20,8 20,4 "/>
<polygon fill="#93928A" points="8,36 4,36 4,32 0,32 0,36 0,40 4,40 8,40 12,40 12,36 "/>
<rect y="28" fill="#C6CCD0" width="4" height="4"/>
</svg>
