<?xml version="1.0" encoding="utf-8"?>
<!-- Generator: Adobe Illustrator 17.0.2, SVG Export Plug-In . SVG Version: 6.00 Build 0)  -->
<!DOCTYPE svg PUBLIC "-//W3C//DTD SVG 1.1//EN" "http://www.w3.org/Graphics/SVG/1.1/DTD/svg11.dtd">
<svg version="1.1" id="Layer_1" xmlns="http://www.w3.org/2000/svg" xmlns:xlink="http://www.w3.org/1999/xlink" x="0px" y="0px"
	 width="85px" height="13px" viewBox="0 0 85 13" enable-background="new 0 0 85 13" xml:space="preserve">
<g>
	<g opacity="0.4">
		<polygon fill="#999999" points="81,1 81,5 77,5 73,5 69,5 65,5 61,5 57,5 53,5 49,5 45,5 45,9 45,13 49,13 53,13 57,13 57,9 61,9 
			65,9 69,9 73,9 77,9 81,9 85,9 85,5 85,1 		"/>
		<polygon fill="#999999" points="33,5 29,5 25,5 21,5 17,5 13,5 9,5 5,5 5,1 1,1 1,5 1,9 5,9 9,9 13,9 17,9 21,9 25,9 29,9 29,13 
			33,13 37,13 40,13 40,9 40,5 37,5 		"/>
	</g>
	<rect x="52" y="8" fill="#93928A" width="4" height="4"/>
	<rect x="28" y="8" fill="#93928A" width="4" height="4"/>
	<rect x="44" y="4" fill="#93928A" width="4" height="4"/>
	<polygon fill="#847262" points="72,4 68,4 64,4 60,4 56,4 52,4 48,4 48,8 52,8 56,8 60,8 64,8 68,8 72,8 76,8 76,4 	"/>
	<polygon fill="#93928A" points="80,0 80,4 76,4 76,8 80,8 84,8 84,4 84,0 	"/>
	<rect x="36" y="4" fill="#93928A" width="4" height="4"/>
	<polygon fill="#82817A" points="36,8 32,8 32,12 36,12 40,12 40,8 	"/>
	<polygon fill="#82817A" points="48,8 44,8 44,12 48,12 52,12 52,8 	"/>
	<polygon fill="#847262" points="32,4 28,4 24,4 20,4 16,4 12,4 8,4 8,8 12,8 16,8 20,8 24,8 28,8 32,8 36,8 36,4 	"/>
	<polygon fill="#93928A" points="4,4 4,0 0,0 0,4 0,8 4,8 8,8 8,4 	"/>
</g>
</svg>
