<?xml version="1.0" encoding="utf-8"?>
<!-- Generator: Adobe Illustrator 17.0.2, SVG Export Plug-In . SVG Version: 6.00 Build 0)  -->
<!DOCTYPE svg PUBLIC "-//W3C//DTD SVG 1.1//EN" "http://www.w3.org/Graphics/SVG/1.1/DTD/svg11.dtd">
<svg version="1.1" id="Layer_1" xmlns="http://www.w3.org/2000/svg" xmlns:xlink="http://www.w3.org/1999/xlink" x="0px" y="0px"
	 width="45px" height="45px" viewBox="0 0 45 45" enable-background="new 0 0 45 45" xml:space="preserve">
<polygon opacity="0.4" fill="#999999" points="41,1 37,1 33,1 29,1 25,1 21,1 17,1 13,1 9,1 5,1 1,1 1,5 1,9 1,13 1,17 5,17 5,21 
	5,25 5,29 5,33 9,33 9,37 13,37 17,37 17,41 21,41 21,45 25,45 25,41 29,41 29,37 33,37 37,37 37,33 41,33 41,29 41,25 41,21 41,17 
	45,17 45,13 45,9 45,5 45,1 "/>
<rect x="20" fill="#96816F" width="4" height="4"/>
<rect x="24" fill="#82817A" width="4" height="4"/>
<rect x="16" fill="#82817A" width="4" height="4"/>
<rect x="40" fill="#7E6756" width="4" height="4"/>
<g>
	<polygon fill="#A38E79" points="36,0 32,0 32,4 36,4 40,4 40,0 	"/>
	<polygon fill="#A38E79" points="4,0 4,4 8,4 12,4 12,0 8,0 	"/>
</g>
<rect fill="#7E6756" width="4" height="4"/>
<rect x="36" y="4" fill="#7E6756" width="4" height="4"/>
<rect x="40" y="4" fill="#96816F" width="4" height="4"/>
<polygon fill="#96816F" points="32,4 32,0 28,0 28,4 24,4 24,8 28,8 32,8 36,8 36,4 "/>
<polygon fill="#96816F" points="16,4 16,0 12,0 12,4 8,4 8,8 12,8 16,8 20,8 20,4 "/>
<rect x="4" y="4" fill="#7E6756" width="4" height="4"/>
<rect x="32" y="8" fill="#7E6756" width="4" height="4"/>
<rect x="36" y="8" fill="#96816F" width="4" height="4"/>
<rect x="8" y="8" fill="#7E6756" width="4" height="4"/>
<rect x="4" y="8" fill="#96816F" width="4" height="4"/>
<rect x="32" y="12" fill="#96816F" width="4" height="4"/>
<polygon fill="#9D8772" points="40,8 40,12 36,12 36,16 40,16 44,16 44,12 44,8 "/>
<rect x="28" y="12" fill="#7E6756" width="4" height="4"/>
<rect x="8" y="12" fill="#96816F" width="4" height="4"/>
<rect x="12" y="12" fill="#7E6756" width="4" height="4"/>
<rect x="4" y="12" fill="#9D8772" width="4" height="4"/>
<polygon fill="#A38E79" points="0,4 0,8 0,12 0,16 4,16 4,12 4,8 4,4 "/>
<polygon fill="#9D8772" points="28,8 24,8 24,4 20,4 20,8 16,8 12,8 12,12 16,12 16,16 20,16 20,20 24,20 24,16 28,16 28,12 32,12 
	32,8 "/>
<rect x="24" y="16" fill="#7E6756" width="4" height="4"/>
<rect x="16" y="16" fill="#7E6756" width="4" height="4"/>
<rect x="28" y="16" fill="#96816F" width="4" height="4"/>
<rect x="12" y="16" fill="#96816F" width="4" height="4"/>
<rect x="20" y="20" fill="#7E6756" width="4" height="4"/>
<rect x="24" y="20" fill="#96816F" width="4" height="4"/>
<rect x="16" y="20" fill="#96816F" width="4" height="4"/>
<rect x="20" y="24" fill="#96816F" width="4" height="4"/>
<rect x="24" y="24" fill="#7E6756" width="4" height="4"/>
<rect x="16" y="24" fill="#7E6756" width="4" height="4"/>
<polygon fill="#9D8772" points="32,16 32,20 28,20 28,24 28,28 32,28 32,24 36,24 36,20 36,16 "/>
<polygon fill="#9D8772" points="12,20 12,16 8,16 8,20 8,24 12,24 12,28 16,28 16,24 16,20 "/>
<rect x="24" y="28" fill="#96816F" width="4" height="4"/>
<rect x="16" y="28" fill="#96816F" width="4" height="4"/>
<rect x="32" y="28" fill="#9D8772" width="4" height="4"/>
<polygon fill="#A38E79" points="36,16 36,20 36,24 32,24 32,28 36,28 36,32 40,32 40,28 40,24 40,20 40,16 "/>
<rect x="28" y="28" fill="#7E6756" width="4" height="4"/>
<rect x="8" y="28" fill="#9D8772" width="4" height="4"/>
<rect x="12" y="28" fill="#7E6756" width="4" height="4"/>
<polygon fill="#A38E79" points="8,24 8,20 8,16 4,16 4,20 4,24 4,28 4,32 8,32 8,28 12,28 12,24 "/>
<polygon fill="#9D8772" points="24,32 24,28 20,28 20,32 16,32 16,36 20,36 20,40 24,40 24,36 28,36 28,32 "/>
<rect x="20" y="40" fill="#A38E79" width="4" height="4"/>
<rect x="24" y="36" fill="#A38E79" width="4" height="4"/>
<rect x="16" y="36" fill="#A38E79" width="4" height="4"/>
<rect x="32" y="32" fill="#7E6756" width="4" height="4"/>
<rect x="28" y="32" fill="#96816F" width="4" height="4"/>
<rect x="8" y="32" fill="#7E6756" width="4" height="4"/>
<rect x="12" y="32" fill="#96816F" width="4" height="4"/>
</svg>
