<svg xmlns="http://www.w3.org/2000/svg" width="50px" height="100px"><g><polygon fill="#F2EFDF" points="30.121,75.018 19.878,67 19.878,83"/></g><g><path fill-rule="evenodd" clip-rule="evenodd" fill="#F2EFDF" d="M32.713,16h-2.57h-1.285v1.285v1.285v10.287 c0,2.121-1.736,3.855-3.857,3.855c-2.12,0-3.856-1.734-3.856-3.855V18.57v-1.285V16h-1.286h-2.571v1.285h2.571v11.572 C19.857,31.697,22.159,34,25,34c2.842,0,5.143-2.303,5.143-5.143V17.285h2.57V16z M22.429,28.857c0,1.414,1.156,2.572,2.571,2.572 s2.57-1.158,2.57-2.572V22.43h-5.142V28.857z"/></g></svg>