<svg xmlns="http://www.w3.org/2000/svg" width="18px" height="18px" viewBox="6 6 18 18"><g><g><path fill="#283740" d="M21.826,15.009H24.2l-3.523,3.907l-3.522-3.907h2.719c-0.114-3.179-2.681-5.706-5.86-5.706 c-3.254,0-5.859,2.643-5.859,5.897s2.605,5.897,5.859,5.897c1.303,0,2.49-0.421,3.486-1.148l1.34,1.455 c-1.34,1.034-3.025,1.647-4.826,1.647c-4.327,0-7.812-3.523-7.812-7.852s3.485-7.852,7.812-7.852 C18.265,7.349,21.711,10.757,21.826,15.009z"/></g><g><path fill="#FFFFFF" d="M21.626,14.809H24l-3.523,3.907l-3.522-3.907h2.719c-0.114-3.179-2.681-5.706-5.86-5.706 c-3.254,0-5.859,2.643-5.859,5.897s2.605,5.897,5.859,5.897c1.303,0,2.49-0.421,3.486-1.148l1.34,1.455 c-1.34,1.034-3.025,1.647-4.826,1.647C9.485,22.852,6,19.328,6,15s3.485-7.852,7.812-7.852 C18.064,7.148,21.511,10.557,21.626,14.809z"/></g></g></svg>