<svg xmlns="http://www.w3.org/2000/svg" width="30px" height="60px" viewBox="0 -15 30 60"><g><g><g><path fill-rule="evenodd" clip-rule="evenodd" fill="#283740" d="M15.19,36.044c-4.686,0-8.49-5.643-8.49-5.834 c0-0.211,3.804-5.854,8.49-5.854c4.708,0,8.573,5.886,8.509,5.854C23.637,30.157,19.897,36.044,15.19,36.044z M15.158,26.226 c-1.988,0-3.591,1.732-3.591,3.89c0,2.136,1.604,3.878,3.591,3.878c1.998,0,3.613-1.742,3.613-3.878 C18.771,27.958,17.155,26.226,15.158,26.226z M15.147,31.813c-0.946,0-1.711-0.827-1.711-1.837s0.765-1.828,1.711-1.828 c0.946,0,1.699,0.818,1.699,1.828S16.093,31.813,15.147,31.813z"/></g><g><path fill-rule="evenodd" clip-rule="evenodd" fill="#FFFFFF" d="M14.99,35.844c-4.686,0-8.49-5.643-8.49-5.834 c0-0.211,3.804-5.854,8.49-5.854c4.708,0,8.573,5.886,8.509,5.854C23.437,29.957,19.697,35.844,14.99,35.844z M14.958,26.025 c-1.988,0-3.591,1.732-3.591,3.89c0,2.136,1.604,3.878,3.591,3.878c1.998,0,3.613-1.742,3.613-3.878 C18.57,27.758,16.955,26.025,14.958,26.025z M14.947,31.613c-0.946,0-1.711-0.827-1.711-1.837s0.765-1.828,1.711-1.828 c0.946,0,1.699,0.818,1.699,1.828S15.893,31.613,14.947,31.613z"/></g></g><g><g><path fill="#283740" d="M21.572,23.829c0.396,0.396,0.638,0.775,0.19,1.224L10.067,36.748c-0.482,0.481-0.827,0.204-1.224-0.191 s-0.673-0.741-0.191-1.223l11.696-11.696C20.796,23.19,21.176,23.433,21.572,23.829z"/></g><g><path fill="#FFFFFF" d="M21.372,23.629c0.396,0.396,0.638,0.775,0.19,1.224L9.867,36.548c-0.482,0.481-0.827,0.204-1.224-0.191 s-0.673-0.741-0.191-1.223l11.696-11.696C20.596,22.99,20.976,23.232,21.372,23.629z"/></g></g></g><g><g><path fill-rule="evenodd" clip-rule="evenodd" fill="#283740" d="M15.19,6.044c-4.686,0-8.49-5.643-8.49-5.834 c0-0.211,3.804-5.854,8.49-5.854c4.708,0,8.573,5.886,8.509,5.854C23.637,0.157,19.897,6.044,15.19,6.044z M15.158-3.774 c-1.988,0-3.591,1.732-3.591,3.89c0,2.136,1.604,3.878,3.591,3.878c1.998,0,3.613-1.742,3.613-3.878 C18.771-2.042,17.155-3.774,15.158-3.774z M15.147,1.813c-0.946,0-1.711-0.827-1.711-1.837s0.765-1.828,1.711-1.828 c0.946,0,1.699,0.818,1.699,1.828S16.093,1.813,15.147,1.813z"/></g><g><path fill-rule="evenodd" clip-rule="evenodd" fill="#FFFFFF" d="M14.99,5.844c-4.686,0-8.49-5.643-8.49-5.834 c0-0.211,3.804-5.854,8.49-5.854c4.708,0,8.573,5.886,8.509,5.854C23.437-0.043,19.697,5.844,14.99,5.844z M14.958-3.975 c-1.988,0-3.591,1.732-3.591,3.89c0,2.136,1.604,3.878,3.591,3.878c1.998,0,3.613-1.742,3.613-3.878 C18.57-2.242,16.955-3.975,14.958-3.975z M14.947,1.613c-0.946,0-1.711-0.827-1.711-1.837S14-2.052,14.947-2.052 c0.946,0,1.699,0.818,1.699,1.828S15.893,1.613,14.947,1.613z"/></g></g></svg>