<svg xmlns="http://www.w3.org/2000/svg" width="81px" height="46px" viewBox="0 0 81 46" enable-background="new 0 0 81 46"><polygon opacity="0.4" fill="#999999" points="76,26 76,21 71,21 71,15.5 71,11 66,11 66,6 61,6 61,11 56,11 56,16 51,16 51,11 46,11 46,6 41,6 41,1 36.5,1 31,1 31,6 26,6 26,11 21,11 21,16 16.5,16 11,16 11,21 6,21 6,25.5 6,31 1,31 1,36 6,36 6,41 11.5,41 16,41 16,36 21,36 21,41 26,41 26,46 31.5,46 36.5,46 41,46 41,41 46.5,41 51,41 51,46 56.5,46 61.5,46 66,46 66,41 66,36 71,36 76,36 76,31 81,31 81,26 "/><g><g><rect y="30" fill="#EAE6D8" width="5" height="5"/><polygon fill="#EAE6D8" points="5,24.5 5,30 10,30 10,24.5 10,20 5,20"/><polygon fill="#EAE6D8" points="10,15 10,20 15.5,20 20,20 20,15 15.5,15"/><polygon fill="#EAE6D8" points="25,10 20,10 20,15 25.5,15 30,15 30,9.5 30,5 25,5"/><polygon fill="#EAE6D8" points="35.5,0 30,0 30,5 35.5,5 40,5 40,0"/><rect x="40" y="5" fill="#EAE6D8" width="5" height="5"/><rect x="45" y="10" fill="#EAE6D8" width="5" height="5"/><rect x="50" y="15" fill="#EAE6D8" width="5" height="5"/><rect x="55" y="10" fill="#EAE6D8" width="5" height="5"/><rect x="60" y="5" fill="#EAE6D8" width="5" height="5"/><polygon fill="#EAE6D8" points="70,10 65,10 65,14.5 65,20 70,20 70,14.5"/><rect x="70" y="30" fill="#EAE6D8" width="5" height="5"/><rect x="75" y="25" fill="#EAE6D8" width="5" height="5"/><rect x="70" y="20" fill="#EAE6D8" width="5" height="5"/><polygon fill="#EAE6D8" points="10.5,40 15,40 15,35 10.5,35 5,35 5,40"/><rect x="15" y="30" fill="#EAE6D8" width="5" height="5"/><rect x="20" y="35" fill="#EAE6D8" width="5" height="5"/><polygon fill="#EAE6D8" points="30.5,45 35.5,45 40,45 40,40 35.5,40 30.5,40 25,40 25,45"/><polygon fill="#EAE6D8" points="50,40 50,35 45.5,35 40,35 40,40 45.5,40"/><polygon fill="#EAE6D8" points="55.5,45 60.5,45 65,45 65,40 60.5,40 55.5,40 50,40 50,45"/></g><rect x="25.5" y="24.5" fill="#FFFFFF" width="5" height="5"/><rect x="30.5" y="29.5" fill="#FFFFFF" width="5" height="5"/><rect x="30.5" y="24.5" fill="#FFFFFF" width="5" height="5"/><rect x="40.5" y="24.5" fill="#FFFFFF" width="5" height="5"/><rect x="45.5" y="24.5" fill="#FFFFFF" width="5" height="5"/><rect x="50.5" y="24.5" fill="#FFFFFF" width="5" height="5"/><rect x="55.5" y="29.5" fill="#FFFFFF" width="5" height="5"/><g><polygon fill="#E2DED5" points="25,25 25,30 30,30 30,35 35,35 35,29.5 35,25 30.5,25"/><polygon fill="#E2DED5" points="50.5,25 45.5,25 40,25 40,30 45.5,30 50.5,30 55,30 55,25"/><rect x="55" y="30" fill="#E2DED5" width="5" height="5"/></g><path fill="#FFFFFF" d="M70,25v-5h-5v-5.5V10h-5v5h-5v5h-5v-5h-5v-5h-5V5h-4.5H30v4.5V15h-4.5H20v5h-4.5H10v4.5V30H5v5h5.5H15v-5h5v5h5v5h5.5h5H40v-5h5.5H50v5h5.5h5H65v-5h5v-5h5v-5H70z M30,35v-5h-5v-5h5.5H35v4.5V35H30z M55,35v-5h-4.5h-5H40v-5h5.5h5H55v5h5v5H55z"/></g></svg>