<svg xmlns="http://www.w3.org/2000/svg" width="86px" height="51px" viewBox="0 0 86 51" enable-background="new 0 0 86 51"><polygon opacity="0.4" fill="#999999" points="81,26 81,21 76,21 76,16 71,16 71,21 66.5,21 66,21 66,16 61.5,16 56,16 56,11 51,11 51,16 46,16 46,11 41.5,11 36,11 36,6 31,6 31,1 26,1 26,6 21,6 21,11 16.5,11 11,11 11,16 6,16 6,21 1,21 1,26 6,26 6,31 11,31 11,36 16,36 16,41 21,41 21,36 26,36 26,41 31,41 31,46 36,46 36,41 41,41 41,46 46,46 46,51 51.5,51 56,51 56,46 61.5,46 66,46 66,41 71,41 71,36 76,36 76,31 76.5,31 81,31 86,31 86,26"/><g><g><rect x="5" y="15" fill="#EAE6D8" width="5" height="5"/><rect y="20" fill="#EAE6D8" width="5" height="5"/><rect x="25" fill="#EAE6D8" width="5" height="5"/><rect x="20" y="5" fill="#EAE6D8" width="5" height="5"/><polygon fill="#EAE6D8" points="20,15 20,10 15.5,10 10,10 10,15 15.5,15"/><rect x="5" y="25" fill="#EAE6D8" width="5" height="5"/><rect x="10" y="30" fill="#EAE6D8" width="5" height="5"/><rect x="15" y="35" fill="#EAE6D8" width="5" height="5"/><rect x="20" y="30" fill="#EAE6D8" width="5" height="5"/><rect x="40" y="40" fill="#EAE6D8" width="5" height="5"/><polygon fill="#EAE6D8" points="45,45 45,50 50.5,50 55,50 55,45 50.5,45"/><polygon fill="#EAE6D8" points="55,40 55,45 60.5,45 65,45 65,40 60.5,40"/><rect x="65" y="35" fill="#EAE6D8" width="5" height="5"/><rect x="70" y="30" fill="#EAE6D8" width="5" height="5"/><rect x="80" y="25" fill="#EAE6D8" width="5" height="5"/><rect x="30" y="40" fill="#EAE6D8" width="5" height="5"/><rect x="25" y="35" fill="#EAE6D8" width="5" height="5"/><rect x="35" y="35" fill="#EAE6D8" width="5" height="5"/><polygon fill="#EAE6D8" points="60.5,20 65,20 65,15 60.5,15 55,15 55,20"/><rect x="30" y="5" fill="#EAE6D8" width="5" height="5"/><rect x="50" y="10" fill="#EAE6D8" width="5" height="5"/><polygon fill="#EAE6D8" points="40.5,15 45,15 45,10 40.5,10 35,10 35,15"/><rect x="45" y="15" fill="#EAE6D8" width="5" height="5"/><rect x="70" y="15" fill="#EAE6D8" width="5" height="5"/><rect x="75" y="20" fill="#EAE6D8" width="5" height="5"/></g><path fill="#FFFFFF" d="M75,25v-5h-4.5h-5h-5H55v-5h-5v5h-5v-5h-4.5H35v-5h-5V5h-5v5h-5v5h-4.5H10v5H5v5h5v5h5v5h5v-5h5v5h5v5h5v-5h5v5h5v5h5.5H55v-5h5.5H65v-5h5v-5h5.5H80v-5H75z M60,30v5h-4.5H50v-5h5.5H60v-5h5v5H60z"/><g><polygon fill="#E2DED5" points="50,30 50,35 55.5,35 60,35 60,30 55.5,30"/><rect x="60" y="25" fill="#E2DED5" width="5" height="5"/></g></g></svg>