<svg xmlns="http://www.w3.org/2000/svg" width="36px" height="21px" viewBox="0 0 36 21" enable-background="new 0 0 36 21"><polygon opacity="0.4" fill="#999999" points="31,11 31,6 26,6 26,1 21,1 16,1 16,6 11,6 11,1 6,1 6,6 1,6 1,11 6,11 6,16 11,16 16,16 16,21 21,21 26,21 26,16 31,16 36,16 36,11 "/><g><polygon fill="#FFFFFF" points="20,5 15,5 10,5 5,5 5,10 10,10 15,10 15,15 20,15 25,15 25,9.5 25,5"/><g><polygon fill="#EAE6D8" points="20,0 15,0 15,5 20,5 25,5 25,0"/><rect x="5" fill="#EAE6D8" width="5" height="5"/><rect y="5" fill="#EAE6D8" width="5" height="5"/><polygon fill="#EAE6D8" points="10,10 5,10 5,15 10,15 15,15 15,10"/><polygon fill="#EAE6D8" points="15,15 15,20 20,20 25,20 25,15 20,15"/><polygon fill="#EAE6D8" points="30,10 30,5 25,5 25,9.5 25,15 30,15 35,15 35,10"/></g></g></svg>