<svg xmlns="http://www.w3.org/2000/svg" width="41px" height="21px" viewBox="0 0 41 21" enable-background="new 0 0 41 21"><polygon opacity="0.4" fill="#999999" points="36,6 36,1 31.5,1 26,1 26,6 21.5,6 21,6 21,1 16.5,1 11.5,1 6,1 6,6 1,6 1,11 6,11 6,16 11,16 11,11 11.5,11 16,11 16,16 21,16 21,21 26,21 26,16 31.5,16 36,16 36,11 41,11 41,6 "/><g><polygon fill="#FFFFFF" points="30.5,5 25.5,5 20.5,5 15.5,5 10.5,5 5,5 5,10 10.5,10 15.5,10 20,10 20,15 25,15 25,10 30.5,10 35,10 35,5"/><g><polygon fill="#EAE6D8" points="30.5,0 25,0 25,5 30.5,5 35,5 35,0"/><polygon fill="#EAE6D8" points="15.5,5 20,5 20,0 15.5,0 10.5,0 5,0 5,5 10.5,5"/><rect y="5" fill="#EAE6D8" width="5" height="5"/><rect x="15" y="10" fill="#EAE6D8" width="5" height="5"/><rect x="5" y="10" fill="#EAE6D8" width="5" height="5"/><rect x="20" y="15" fill="#EAE6D8" width="5" height="5"/><polygon fill="#EAE6D8" points="25,10 25,15 30.5,15 35,15 35,10 30.5,10"/><rect x="35" y="5" fill="#EAE6D8" width="5" height="5"/></g></g></svg>