<svg xmlns="http://www.w3.org/2000/svg" width="121px" height="76px"><polygon opacity="0.4" fill="#999999" points="116,51 116,46 111,46 111,41 106,41 106,36 101,36 101,30.5 101,25.5 101,20.5 101,16 96,16 96,11 91,11 91,16 86,16 86,20.5 86,26 81,26 81,20.5 81,15.5 81,11 76,11 71,11 71,5.5 71,1 66,1 61,1 56,1 56,6 51,6 51,11 46,11 41,11 41,16 36,16 36,20.5 36,25.5 36,31 31,31 31,36 26,36 26,41 21,41 21,36 16,36 16,41 11,41 11,45.5 11,51 6,51 6,56 1,56 1,61 6,61 6,66 11,66 16,66 16,71 21,71 26,71 26,76 31,76 36,76 41,76 46,76 46,71 51,71 56,71 56,76 61,76 66,76 71,76 71,71 76,71 81,71 81,76 86,76 91,76 96,76 96,71 101,71 106,71 106,65.5 106,61 111,61 116,61 116,56 121,56 121,51 "/><g><rect x="25" y="54.5" fill="#FFFFFF" width="5" height="5"/><rect x="30" y="59.5" fill="#FFFFFF" width="5" height="5"/><rect x="35" y="59.5" fill="#FFFFFF" width="5" height="5"/><rect x="40" y="54.5" fill="#FFFFFF" width="5" height="5"/><rect x="45" y="54.5" fill="#FFFFFF" width="5" height="5"/><rect x="45" y="29.5" fill="#FFFFFF" width="5" height="5"/><rect x="45" y="24.5" fill="#FFFFFF" width="5" height="5"/><rect x="50" y="49.5" fill="#FFFFFF" width="5" height="5"/><rect x="50" y="19.5" fill="#FFFFFF" width="5" height="5"/><rect x="55" y="54.5" fill="#FFFFFF" width="5" height="5"/><rect x="55" y="14.5" fill="#FFFFFF" width="5" height="5"/><rect x="60" y="59.5" fill="#FFFFFF" width="5" height="5"/><rect x="60" y="14.5" fill="#FFFFFF" width="5" height="5"/><rect x="65" y="54.5" fill="#FFFFFF" width="5" height="5"/><rect x="80" y="34.5" fill="#FFFFFF" width="5" height="5"/><rect x="85" y="34.5" fill="#FFFFFF" width="5" height="5"/><rect x="90" y="39.5" fill="#FFFFFF" width="5" height="5"/><path fill="#FFFFFF" d="M110,50v-5h-5v-5h-5v-5h-5v-5.5v-5v-5V15h-5v4.5V25h-5v5h-5v-5h-5v-5.5V15h-5v-5h-5V5h-5h-5v5h-5v5h-5h-5 v4.5v5v5V35h-5h-5v4.5v5V50h-5v-5h-5v-5h-5v4.5v5V55h-5H5v5h5h5v5h5h5v5h5h5h5h5v-5h5h5v5h5h5h5v-5h5h5v5h5h5h5v-5h5v-5h5v-5h5h5v-5H110z M85,35h5v5h5v5h-5v-5h-5h-5v-5H85z M45,29.5V25h5v-5h5v-5h5h5v5h-5h-5v5h-5v4.5V35h-5V29.5z M65,60v5h-5v-5h-5v-5h-5v5h-5h-5v5h-5h-5v-5h-5v-5h5v5h5h5v-5h5h5v-5h5v5h5v5H65v-5h5v5H65z"/><g><polygon fill="#E2DED5" points="65,20 65,15 60,15 55,15 55,20 60,20"/><polygon fill="#E2DED5" points="85,35 80,35 80,40 85,40 90,40 90,35"/><rect x="90" y="40" fill="#E2DED5" width="5" height="5"/><rect x="50" y="20" fill="#E2DED5" width="5" height="5"/><polygon fill="#E2DED5" points="50,29.5 50,25 45,25 45,29.5 45,35 50,35"/><rect x="25" y="55" fill="#E2DED5" width="5" height="5"/><polygon fill="#E2DED5" points="30,60 30,65 35,65 40,65 40,60 35,60"/><polygon fill="#E2DED5" points="40,55 40,60 45,60 50,60 50,55 45,55"/><rect x="50" y="50" fill="#E2DED5" width="5" height="5"/><rect x="55" y="55" fill="#E2DED5" width="5" height="5"/><rect x="60" y="60" fill="#E2DED5" width="5" height="5"/><rect x="65" y="55" fill="#E2DED5" width="5" height="5"/></g><g><rect y="55" fill="#EAE6D8" width="5" height="5"/><polygon fill="#EAE6D8" points="10,60 5,60 5,65 10,65 15,65 15,60"/><polygon fill="#EAE6D8" points="20,65 15,65 15,70 20,70 25,70 25,65"/><polygon fill="#EAE6D8" points="35,70 30,70 25,70 25,75 30,75 35,75 40,75 45,75 45,70 40,70"/><polygon fill="#EAE6D8" points="50,65 45,65 45,70 50,70 55,70 55,65"/><polygon fill="#EAE6D8" points="75,65 70,65 70,70 75,70 80,70 80,65"/><polygon fill="#EAE6D8" points="100,65 95,65 95,70 100,70 105,70 105,64.5 105,60 100,60"/><polygon fill="#EAE6D8" points="105,55 105,60 110,60 115,60 115,55 110,55"/><rect x="110" y="45" fill="#EAE6D8" width="5" height="5"/><rect x="115" y="50" fill="#EAE6D8" width="5" height="5"/><polygon fill="#EAE6D8" points="95,24.5 95,29.5 95,35 100,35 100,29.5 100,24.5 100,19.5 100,15 95,15 95,19.5"/><polygon fill="#EAE6D8" points="90,19.5 90,15 85,15 85,19.5 85,25 90,25"/><rect x="80" y="25" fill="#EAE6D8" width="5" height="5"/><polygon fill="#EAE6D8" points="75,15 75,19.5 75,25 80,25 80,19.5 80,14.5 80,10 75,10 70,10 70,15"/><rect x="90" y="10" fill="#EAE6D8" width="5" height="5"/><rect x="105" y="40" fill="#EAE6D8" width="5" height="5"/><rect x="100" y="35" fill="#EAE6D8" width="5" height="5"/><polygon fill="#EAE6D8" points="40,35 40,29.5 40,24.5 40,19.5 40,15 35,15 35,19.5 35,24.5 35,30 30,30 30,35 35,35"/><polygon fill="#EAE6D8" points="15,55 15,49.5 15,44.5 15,40 10,40 10,44.5 10,50 5,50 5,55 10,55"/><polygon fill="#EAE6D8" points="25,45 25,50 30,50 30,44.5 30,39.5 30,35 25,35 25,40 20,40 20,45"/><rect x="15" y="35" fill="#EAE6D8" width="5" height="5"/><polygon fill="#EAE6D8" points="60,70 55,70 55,75 60,75 65,75 70,75 70,70 65,70"/><rect x="50" y="5" fill="#EAE6D8" width="5" height="5"/><polygon fill="#EAE6D8" points="65,5 65,10 70,10 70,4.5 70,0 65,0 60,0 55,0 55,5 60,5"/><polygon fill="#EAE6D8" points="50,15 50,10 45,10 40,10 40,15 45,15"/><polygon fill="#EAE6D8" points="85,70 80,70 80,75 85,75 90,75 95,75 95,70 90,70"/></g></g></svg>