<?xml version="1.0" encoding="utf-8"?>
<!-- Generator: Adobe Illustrator 17.0.2, SVG Export Plug-In . SVG Version: 6.00 Build 0)  -->
<!DOCTYPE svg PUBLIC "-//W3C//DTD SVG 1.1//EN" "http://www.w3.org/Graphics/SVG/1.1/DTD/svg11.dtd">
<svg version="1.1" id="Layer_1" xmlns="http://www.w3.org/2000/svg" xmlns:xlink="http://www.w3.org/1999/xlink" x="0px" y="0px"
	 width="81px" height="51px" viewBox="0 0 81 51" enable-background="new 0 0 81 51" xml:space="preserve">
<polygon opacity="0.4" fill="#999999" points="76,31 76,26 76,21 71.5,21 66,21 66,16 61,16 61,11 56.5,11 51,11 51,6 46,6 46,1 
	41,1 41,6 36,6 36,11 31.5,11 26,11 26,6 21,6 21,11 16,11 16,16 11,16 11,21 6,21 6,26 1,26 1,31 6,31 6,36 1,36 1,41 6,41 6,46 
	11,46 11,41 16.5,41 21,41 21,46 26,46 26,51 31,51 31,46 36.5,46 41,46 41,41 46.5,41 51.5,41 56,41 56,46 61.5,46 66,46 66,41 
	66.5,41 71,41 76,41 76,36 81,36 81,31 "/>
<g>
	<rect y="35" fill="#EAE6D8" width="5" height="5"/>
	<polygon fill="#EAE6D8" points="10,30 10,25 10,20 5,20 5,25 0,25 0,30 5,30 5,35 10,35 	"/>
	<rect x="15" y="10" fill="#EAE6D8" width="5" height="5"/>
	<polygon fill="#EAE6D8" points="25,10 25,15 30.5,15 35,15 35,10 30.5,10 	"/>
	<rect x="20" y="5" fill="#EAE6D8" width="5" height="5"/>
	<rect x="45" y="5" fill="#EAE6D8" width="5" height="5"/>
	<polygon fill="#EAE6D8" points="55.5,10 50,10 50,15 55.5,15 60,15 60,10 	"/>
	<rect x="35" y="5" fill="#EAE6D8" width="5" height="5"/>
	<rect x="40" fill="#EAE6D8" width="5" height="5"/>
	<polygon fill="#EAE6D8" points="70.5,25 75,25 75,20 70.5,20 65,20 65,25 	"/>
	<rect x="60" y="15" fill="#EAE6D8" width="5" height="5"/>
	<rect x="70" y="35" fill="#EAE6D8" width="5" height="5"/>
	<rect x="75" y="30" fill="#EAE6D8" width="5" height="5"/>
	<rect x="5" y="40" fill="#EAE6D8" width="5" height="5"/>
	<polygon fill="#EAE6D8" points="50.5,35 45.5,35 40,35 40,40 45.5,40 50.5,40 55,40 55,35 	"/>
	<polygon fill="#EAE6D8" points="15.5,35 10,35 10,40 15.5,40 20,40 20,35 	"/>
	<rect x="20" y="40" fill="#EAE6D8" width="5" height="5"/>
	<rect x="25" y="45" fill="#EAE6D8" width="5" height="5"/>
	<polygon fill="#EAE6D8" points="30,40 30,45 35.5,45 40,45 40,40 35.5,40 	"/>
	<polygon fill="#EAE6D8" points="55,40 55,45 60.5,45 65,45 65,40 60.5,40 	"/>
</g>
<g>
	<rect x="5" y="35" fill="#FFFFFF" width="5" height="5"/>
	<polygon fill="#FFFFFF" points="70.5,25 65,25 65,20 60,20 60,15 55.5,15 50,15 50,10 45,10 45,5 40,5 40,10 35,10 35,15 30.5,15 
		25,15 25,10 20,10 20,15 15.5,15 10,15 10,20 10,25 10,30 10,35 15.5,35 20,35 20,40 25,40 25,45 30,45 30,40 35.5,40 40,40 40,35 
		45.5,35 50.5,35 55,35 55,40 60.5,40 65.5,40 70,40 70,35 75,35 75,30 75,25 	"/>
</g>
<g>
	<polygon fill="#E2DED5" points="40.5,25 35,25 35,30 40.5,30 45,30 45,25 	"/>
	<rect x="30" y="30" fill="#E2DED5" width="5" height="5"/>
</g>
</svg>
