<svg xmlns="http://www.w3.org/2000/svg" width="116px" height="71px" viewBox="0 0 116 71"><polygon opacity="0.4" fill="#999999" points="111,36 111,31 106,31 106,26 101,26 96,26 96,21 91,21 91,16 86,16 86,11 81,11 81,6 76,6 76,11 71,11 71,6 66,6 66,11 61,11 61,16 56,16 56,21 51,21 46,21 46,16 51,16 51,11 46,11 46,6 41,6 41,1 36,1 36,6 31,6 31,11 26,11 26,16 31,16 31,21 31,26 26,26 26,31 21,31 21,36 16,36 11,36 11,41 6,41 6,46 1,46 1,51 6,51 6,56 11,56 16,56 16,61 21,61 21,66 26,66 31,66 31,71 36,71 36,66 41,66 46,66 46,71 51,71 51,66 56,66 61,66 61,71 66,71 66,66 71,66 71,61 76,61 76,56 81,56 81,61 86,61 86,56 91,56 96,56 96,51 101,51 106,51 106,46 111,46 116,46 116,41 116,36 "/><g><path fill="#FFFFFF" d="M105,35v-5h-5h-5v-5h-5h-5v-5v-5h-5v-5h-5v5h-5v-5h-5v5h-5v5h-5v5v5h-5v-5h-5v-5h-5v-5h5v-5h-5V5h-5v5h-5v5 h5v5v5h-5v5h-5v5h-5v5h-5h-5v5H5v5h5h5v5h5v5h5h5v5h5v-5h5h5v5h5v-5h5h5v5h5v-5v-5h5h5v-5h5v5h5v-5h5h5v-5h5h5v-5h5v-5H105z M85,30 v5h-5v-5h-5v-5h5v5H85z M60,50h-5v5h-5h-5v-5h-5v5h-5v-5h-5v-5h5v5h5v-5h5v5h5h5v-5h5h5v5H60z"/><g><rect y="45" fill="#EAE6D8" width="5" height="5"/><polygon fill="#EAE6D8" points="10,50 5,50 5,55 10,55 15,55 15,50"/><rect x="15" y="55" fill="#EAE6D8" width="5" height="5"/><rect x="5" y="40" fill="#EAE6D8" width="5" height="5"/><polygon fill="#EAE6D8" points="20,40 20,35 15,35 10,35 10,40 15,40"/><rect x="20" y="30" fill="#EAE6D8" width="5" height="5"/><rect x="25" y="25" fill="#EAE6D8" width="5" height="5"/><polygon fill="#EAE6D8" points="35,20 35,15 30,15 30,20 30,25 35,25"/><rect x="25" y="10" fill="#EAE6D8" width="5" height="5"/><rect x="30" y="5" fill="#EAE6D8" width="5" height="5"/><rect x="35" fill="#EAE6D8" width="5" height="5"/><rect x="40" y="5" fill="#EAE6D8" width="5" height="5"/><rect x="45" y="10" fill="#EAE6D8" width="5" height="5"/><rect x="40" y="15" fill="#EAE6D8" width="5" height="5"/><polygon fill="#EAE6D8" points="50,25 50,30 55,30 55,25 55,20 50,20 45,20 45,25"/><rect x="55" y="15" fill="#EAE6D8" width="5" height="5"/><rect x="60" y="10" fill="#EAE6D8" width="5" height="5"/><rect x="75" y="5" fill="#EAE6D8" width="5" height="5"/><rect x="70" y="10" fill="#EAE6D8" width="5" height="5"/><rect x="80" y="10" fill="#EAE6D8" width="5" height="5"/><polygon fill="#EAE6D8" points="85,25 90,25 95,25 95,20 90,20 90,15 85,15 85,20"/><polygon fill="#EAE6D8" points="110,35 110,40 105,40 105,45 110,45 115,45 115,40 115,35"/><polygon fill="#EAE6D8" points="100,30 105,30 105,25 100,25 95,25 95,30"/><rect x="65" y="5" fill="#EAE6D8" width="5" height="5"/><rect x="105" y="30" fill="#EAE6D8" width="5" height="5"/><polygon fill="#EAE6D8" points="25,60 20,60 20,65 25,65 30,65 30,60"/><rect x="30" y="65" fill="#EAE6D8" width="5" height="5"/><polygon fill="#EAE6D8" points="40,60 35,60 35,65 40,65 45,65 45,60"/><rect x="45" y="65" fill="#EAE6D8" width="5" height="5"/><polygon fill="#EAE6D8" points="55,60 50,60 50,65 55,65 60,65 60,60"/><rect x="60" y="65" fill="#EAE6D8" width="5" height="5"/><rect x="75" y="50" fill="#EAE6D8" width="5" height="5"/><rect x="80" y="55" fill="#EAE6D8" width="5" height="5"/><polygon fill="#EAE6D8" points="85,50 85,55 90,55 95,55 95,50 90,50"/><polygon fill="#EAE6D8" points="95,45 95,50 100,50 105,50 105,45 100,45"/><polygon fill="#EAE6D8" points="65,55 65,60 65,65 70,65 70,60 75,60 75,55 70,55"/><polygon fill="#EAE6D8" points="55,45 55,50 60,50 65,50 65,45 60,45"/><polygon fill="#EAE6D8" points="45,50 45,55 50,55 55,55 55,50 50,50"/><rect x="40" y="45" fill="#EAE6D8" width="5" height="5"/><rect x="35" y="50" fill="#EAE6D8" width="5" height="5"/><rect x="30" y="45" fill="#EAE6D8" width="5" height="5"/><rect x="75" y="25" fill="#EAE6D8" width="5" height="5"/><rect x="80" y="30" fill="#EAE6D8" width="5" height="5"/></g></g></svg>