<svg xmlns="http://www.w3.org/2000/svg" width="86px" height="46px" viewBox="0 0 86 46" enable-background="new 0 0 86 46"><polygon opacity="0.4" fill="#999999" points="81,26 81,21 76,21 76,16 71,16 71,21 66.5,21 61,21 61,16 56,16 56,11 51,11 51,6 46,6 46,1 41,1 41,6 36,6 36,11 31,11 31,6 26,6 26,1 21.5,1 16,1 16,6 11,6 11,10.5 11,16 6,16 6,21 1,21 1,25.5 1,31 6,31 6,36 11,36 11,41 16.5,41 21,41 21,36 26,36 26,41 31,41 31,46 36.5,46 41.5,46 46,46 46,41 51.5,41 56,41 56,46 61.5,46 66.5,46 71,46 71,41 71,36 76,36 81,36 81,31 86,31 86,26 "/><g><g><rect x="15" y="20" fill="#E2DED5" width="5" height="5"/><rect x="20" y="15" fill="#E2DED5" width="5" height="5"/><polygon fill="#E2DED5" points="30.5,20 25,20 25,25 30.5,25 35,25 35,20 "/></g><g><rect x="5" y="30" fill="#EAE6D8" width="5" height="5"/><polygon fill="#EAE6D8" points="0,24.5 0,30 5,30 5,24.5 5,20 0,20 "/><rect x="5" y="15" fill="#EAE6D8" width="5" height="5"/><polygon fill="#EAE6D8" points="10,9.5 10,15 15,15 15,9.5 15,5 10,5 "/><polygon fill="#EAE6D8" points="20.5,0 15,0 15,5 20.5,5 25,5 25,0 "/><rect x="25" y="5" fill="#EAE6D8" width="5" height="5"/><rect x="30" y="10" fill="#EAE6D8" width="5" height="5"/><rect x="40" fill="#EAE6D8" width="5" height="5"/><rect x="45" y="5" fill="#EAE6D8" width="5" height="5"/><rect x="50" y="10" fill="#EAE6D8" width="5" height="5"/><rect x="55" y="15" fill="#EAE6D8" width="5" height="5"/><rect x="70" y="15" fill="#EAE6D8" width="5" height="5"/><rect x="75" y="30" fill="#EAE6D8" width="5" height="5"/><rect x="80" y="25" fill="#EAE6D8" width="5" height="5"/><rect x="75" y="20" fill="#EAE6D8" width="5" height="5"/><polygon fill="#EAE6D8" points="15.5,40 20,40 20,35 15.5,35 10,35 10,40 "/><rect x="20" y="30" fill="#EAE6D8" width="5" height="5"/><rect x="25" y="35" fill="#EAE6D8" width="5" height="5"/><polygon fill="#EAE6D8" points="35.5,45 40.5,45 45,45 45,40 40.5,40 35.5,40 30,40 30,45 "/><polygon fill="#EAE6D8" points="55,40 55,35 50.5,35 45,35 45,40 50.5,40 "/><polygon fill="#EAE6D8" points="60.5,45 65.5,45 70,45 70,40 65.5,40 60.5,40 55,40 55,45 "/><rect x="35" y="5" fill="#EAE6D8" width="5" height="5"/><polygon fill="#EAE6D8" points="60,20 60,25 65.5,25 70,25 70,20 65.5,20 "/></g><path fill="#FFFFFF" d="M75,25v-5h-5v5h-4.5H60v-5h-5v-5h-5v-5h-5V5h-5v5h-5v5h-5v-5h-5V5h-4.5H15v4.5V15h-5v5H5v4.5V30h5v5h5.5H20v-5h5v5h5v5h5.5h5H45v-5h5.5H55v5h5.5h5H70v-5h5v-5h5v-5H75z M20,20v5h-5v-5H20v-5h5v5h5.5H35v5h-4.5H25v-5H20z"/></g></svg>