<svg xmlns="http://www.w3.org/2000/svg" width="81px" height="51px" viewBox="0 0 81 51" enable-background="new 0 0 81 51"><polygon opacity="0.4" fill="#999999" points="76,26 76,21 71,21 71,16 66,16 61,16 61,11 56,11 56,6 51,6 51,11 46,11 46,16 41,16 41,21 36,21 36,16 36,11 31,11 31,6 26,6 26,1 21,1 21,6 16,6 16,11 11,11 11,16 11,21 6,21 6,26 1,26 1,31 6,31 6,36 11,36 11,41 16,41 16,36 21,36 26,36 26,41 31,41 31,46 36,46 41,46 41,51 46,51 51,51 51,46 56,46 61,46 61,41 66,41 66,36 71,36 71,31 76,31 81,31 81,26 "/>
<g><path fill="#FFFFFF" d="M70,25v-5h-5.013H60v-5h-5v-5h-5v5h-5v5h-5v5h-5v-5h-5v-5.343V10h-5V5h-5v5h-5v4.657V20h-5v5H5v5h5v5h5v-5h4.987H25v5h5v5h4.987H40v5h4.987H50v-5h4.987H60v-5h5v-5h4.987H75v-5H70z M55,30v5h-5.013H45v-5h4.987H55v-5h5v5H55z"/><g><rect x="5" y="20" fill="#EAE6D8" width="5" height="5"/><rect x="20" fill="#EAE6D8" width="5" height="5"/><rect x="15" y="5" fill="#EAE6D8" width="5" height="5"/><polygon fill="#EAE6D8" points="10,15 10,20 15,20 15,15 15,10 10,10 "/><rect y="25" fill="#EAE6D8" width="5" height="5"/><rect x="5" y="30" fill="#EAE6D8" width="5" height="5"/><rect x="10" y="35" fill="#EAE6D8" width="5" height="5"/><polygon fill="#EAE6D8" points="25,35 25,30 20,30 15,30 15,35 20,35 "/><polygon fill="#EAE6D8" points="35,45 40,45 40,40 35,40 30,40 30,45 "/><polygon fill="#EAE6D8" points="45,50 50,50 50,45 45,45 40,45 40,50 "/><polygon fill="#EAE6D8" points="60,45 60,40 55,40 50,40 50,45 55,45 "/><rect x="60" y="35" fill="#EAE6D8" width="5" height="5"/><rect x="65" y="30" fill="#EAE6D8" width="5" height="5"/><rect x="75" y="25" fill="#EAE6D8" width="5" height="5"/><rect x="25" y="35" fill="#EAE6D8" width="5" height="5"/><rect x="25" y="5" fill="#EAE6D8" width="5" height="5"/><rect x="50" y="5" fill="#EAE6D8" width="5" height="5"/><rect x="45" y="10" fill="#EAE6D8" width="5" height="5"/><rect x="55" y="10" fill="#EAE6D8" width="5" height="5"/><polygon fill="#EAE6D8" points="35,10 30,10 30,15 30,20 35,20 35,15 "/><rect x="40" y="15" fill="#EAE6D8" width="5" height="5"/><polygon fill="#EAE6D8" points="65,15 60,15 60,20 65,20 70,20 70,15 "/><rect x="70" y="20" fill="#EAE6D8" width="5" height="5"/><rect x="35" y="20" fill="#EAE6D8" width="5" height="5"/></g><g><polygon fill="#E2DED5" points="45,30 45,35 50,35 55,35 55,30 50,30 "/><rect x="55" y="25" fill="#E2DED5" width="5" height="5"/></g></g></svg>