<svg xmlns="http://www.w3.org/2000/svg" width="101px" height="61px" viewBox="0 0 101 61"><polygon opacity="0.4" fill="#999999" points="96,51 96,46 91,46 86,46 86,41 91,41 91,36 91,31 86,31 86,26 81,26 81,31 76,31 76,36 71,36 71,31 66,31 66,26 66,21 71,21 71,16 66,16 66,11 61,11 61,6 56,6 56,1 51,1 46,1 46,6 41,6 41,11 36,11 36,16 36,21 41,21 41,26 36,26 36,21 31,21 31,16 26,16 26,21 21,21 21,26 21,31 16,31 16,36 11,36 11,41 6,41 6,46 1,46 1,51 6,51 6,56 11,56 11,61 16,61 16,56 21,56 26,56 26,51 31,51 31,56 36,56 36,61 41,61 46,61 51,61 51,56 56,56 56,61 61,61 66,61 71,61 71,56 76,56 76,61 81,61 86,61 91,61 96,61 96,56 101,56 101,51 "/><g><rect x="90" y="50" fill="#EAE6D8" width="5" height="5"/><rect x="25" y="35" fill="#FFFFFF" width="5" height="5"/><rect x="30" y="35" fill="#FFFFFF" width="5" height="5"/><rect x="35" y="40" fill="#FFFFFF" width="5" height="5"/><rect x="40" y="45" fill="#FFFFFF" width="5" height="5"/><rect x="45" y="40" fill="#FFFFFF" width="5" height="5"/><rect x="50" y="40" fill="#FFFFFF" width="5" height="5"/><rect x="55" y="35" fill="#FFFFFF" width="5" height="5"/><rect x="60" y="40" fill="#FFFFFF" width="5" height="5"/><g><rect y="45" fill="#EAE6D8" width="5" height="5"/><rect x="5" y="40" fill="#EAE6D8" width="5" height="5"/><rect x="5" y="50" fill="#EAE6D8" width="5" height="5"/><rect x="10" y="55" fill="#EAE6D8" width="5" height="5"/><polygon fill="#EAE6D8" points="25,55 25,50 20,50 15,50 15,55 20,55"/><rect x="25" y="45" fill="#EAE6D8" width="5" height="5"/><rect x="30" y="50" fill="#EAE6D8" width="5" height="5"/><polygon fill="#EAE6D8" points="40,60 45,60 50,60 50,55 45,55 40,55 35,55 35,60"/><rect x="50" y="50" fill="#EAE6D8" width="5" height="5"/><polygon fill="#EAE6D8" points="60,60 65,60 70,60 70,55 70,50 65,50 65,55 60,55 55,55 55,60"/><polygon fill="#EAE6D8" points="85,55 80,55 75,55 75,60 80,60 85,60 90,60 95,60 95,55 90,55"/><rect x="80" y="40" fill="#EAE6D8" width="5" height="5"/><polygon fill="#EAE6D8" points="90,35 90,30 85,30 85,35 85,40 90,40"/><rect x="70" y="35" fill="#EAE6D8" width="5" height="5"/><polygon fill="#EAE6D8" points="65,20 60,20 60,25 60,30 65,30 65,25"/><rect x="40" y="20" fill="#EAE6D8" width="5" height="5"/><rect x="30" y="20" fill="#EAE6D8" width="5" height="5"/><rect x="25" y="15" fill="#EAE6D8" width="5" height="5"/><polygon fill="#EAE6D8" points="20,25 20,30 25,30 25,25 25,20 20,20"/><rect x="15" y="30" fill="#EAE6D8" width="5" height="5"/><rect x="10" y="35" fill="#EAE6D8" width="5" height="5"/><rect x="35" y="25" fill="#EAE6D8" width="5" height="5"/><polygon fill="#EAE6D8" points="35,15 35,20 40,20 40,15 40,10 35,10"/><rect x="75" y="30" fill="#EAE6D8" width="5" height="5"/><rect x="65" y="30" fill="#EAE6D8" width="5" height="5"/><rect x="80" y="25" fill="#EAE6D8" width="5" height="5"/><rect x="65" y="15" fill="#EAE6D8" width="5" height="5"/><rect x="60" y="10" fill="#EAE6D8" width="5" height="5"/><rect x="55" y="5" fill="#EAE6D8" width="5" height="5"/><rect x="40" y="5" fill="#EAE6D8" width="5" height="5"/><polygon fill="#EAE6D8" points="50,0 45,0 45,5 50,5 55,5 55,0"/><rect x="95" y="50" fill="#EAE6D8" width="5" height="5"/><polygon fill="#EAE6D8" points="90,45 85,45 85,50 90,50 95,50 95,45"/></g><g><polygon fill="#E2DED5" points="30,35 25,35 25,40 30,40 35,40 35,35"/><polygon fill="#E2DED5" points="45,40 45,45 50,45 55,45 55,40 50,40"/><rect x="60" y="40" fill="#E2DED5" width="5" height="5"/><rect x="55" y="35" fill="#E2DED5" width="5" height="5"/><rect x="35" y="40" fill="#E2DED5" width="5" height="5"/><rect x="40" y="45" fill="#E2DED5" width="5" height="5"/></g><path fill="#FFFFFF" d="M90,50h-5v-5h-5v-5h5v-5v-5h-5v5h-5v5h-5v-5h-5v-5h-5v-5v-5h5v-5h-5v-5h-5V5h-5h-5v5h-5v5v5h5v5h-5v5h-5v-5h-5v-5h-5v5v5h-5v5h-5v5h-5v5H5v5h5v5h5v-5h5h5v-5h5v5h5v5h5h5h5v-5h5v5h5h5v-5h5v5h5h5h5h5h5v-5H90z M60,45v-5h-5v5h-5h-5v5h-5v-5h-5v-5h-5h-5v-5h5h5v5h5v5h5v-5h5h5v-5h5v5h5v5H60z"/></g></svg>