<svg xmlns="http://www.w3.org/2000/svg" width="41px" height="21px" viewBox="0 0 41 21" enable-background="new 0 0 41 21"><polygon opacity="0.4" fill="#999999" points="36,11 36,6 31,6 26,6 21,6 21,1 16,1 11,1 11,6 6,6 6,11 1,11 1,16 6,16 6,21 11,21 16,21 21,21 21,16 26,16 26,21 31,21 31,16 36,16 41,16 41,11 "/><g><polygon fill="#FFFFFF" points="25,5 20,5 15,5 10,5 10,10 5,10 5,15 10,15 15,15 20,15 20,10 25,10 25,15 30,15 30,9.5 30,5"/><g><polygon fill="#EAE6D8" points="20,5 20,0 15,0 10,0 10,5 15,5"/><rect x="5" y="5" fill="#EAE6D8" width="5" height="5"/><rect x="20" y="10" fill="#EAE6D8" width="5" height="5"/><rect y="10" fill="#EAE6D8" width="5" height="5"/><polygon fill="#EAE6D8" points="10,15 5,15 5,20 10,20 15,20 20,20 20,15 15,15"/><rect x="25" y="15" fill="#EAE6D8" width="5" height="5"/><polygon fill="#EAE6D8" points="35,10 35,5 30,5 30,9.5 30,15 35,15 40,15 40,10"/></g></g></svg>