<svg xmlns="http://www.w3.org/2000/svg" width="121px" height="76px" viewBox="0 0 121 76" enable-background="new 0 0 121 76"><polygon opacity="0.4" fill="#999999" points="116,51 116,45.5 116,41 111,41 111,36 116,36 116,30.5 116,26 111,26 111,21 106,21 106,26 101,26 101,20.5 101,16 96,16 96,11 91,11 91,16 86,16 81,16 81,11 76,11 76,6 71,6 71,1 66,1 66,6 61,6 61,1 56,1 56,6 51,6 51,11 46,11 41,11 41,16 36,16 36,21 41,21 41,26 36,26 36,31 31,31 31,26 26,26 26,31 21,31 21,36 16,36 16,41 11,41 11,45.5 11,51 6,51 6,56 1,56 1,61 6,61 6,66 11,66 16,66 16,71 21,71 26,71 26,76 31,76 36,76 41,76 46,76 46,71 51,71 56,71 56,76 61,76 66,76 71,76 71,71 76,71 81,71 81,76 86,76 91,76 96,76 96,71 101,71 106,71 106,65.5 106,61 111,61 116,61 116,56 121,56 121,51"/><g><path fill="#FFFFFF" d="M110,50v-5.5V40h-5v-5h5v-5.5V25h-5v5h-5v-5h-5v-5.5V15h-5v5h-5h-5v-5h-5v-5h-5V5h-5v5h-5V5h-5v5h-5v5h-5h-5v5h5v5h-5v5h-5v5h-5v-5h-5v5h-5v5h-5v4.5V50h-5v5H5v5h5h5v5h5h5v5h5h5h5h5v-5h5h5v5h5h5h5v-5h5h5v5h5h5h5v-5h5v-5h5v-5h5h5v-5H110z M50,20h5v-5h5h5v5h-5h-5v5h-5V20z M45,30h5v5h-5V30z M70,60h-5v5h-5v-5h-5v-5h-5v5h-5h-5v5h-5h-5v-5h-5v-5h5v5h5h5v-5h5h5v-5h5v5h5v5h5v-5h5V60z M105,50h-5v5h-5v5h-5v5h-5v-5.5V55h5h5v-5h5v-5h5V50z"/><g><rect x="40" y="20" fill="#EAE6D8" width="5" height="5"/><rect x="60" y="5" fill="#EAE6D8" width="5" height="5"/><rect y="55" fill="#EAE6D8" width="5" height="5"/><rect x="5" y="50" fill="#EAE6D8" width="5" height="5"/><polygon fill="#EAE6D8" points="10,60 5,60 5,65 10,65 15,65 15,60"/><polygon fill="#EAE6D8" points="20,65 15,65 15,70 20,70 25,70 25,65"/><polygon fill="#EAE6D8" points="35,70 30,70 25,70 25,75 30,75 35,75 40,75 45,75 45,70 40,70"/><polygon fill="#EAE6D8" points="50,65 45,65 45,70 50,70 55,70 55,65"/><polygon fill="#EAE6D8" points="75,65 70,65 70,70 75,70 80,70 80,65"/><polygon fill="#EAE6D8" points="100,65 95,65 95,70 100,70 105,70 105,64.5 105,60 100,60"/><polygon fill="#EAE6D8" points="105,55 105,60 110,60 115,60 115,55 110,55"/><polygon fill="#EAE6D8" points="110,50 115,50 115,44.5 115,40 110,40 110,44.5"/><rect x="115" y="50" fill="#EAE6D8" width="5" height="5"/><rect x="100" y="25" fill="#EAE6D8" width="5" height="5"/><polygon fill="#EAE6D8" points="95,25 100,25 100,19.5 100,15 95,15 95,19.5"/><polygon fill="#EAE6D8" points="85,20 90,20 90,15 85,15 80,15 80,20"/><rect x="75" y="10" fill="#EAE6D8" width="5" height="5"/><rect x="70" y="5" fill="#EAE6D8" width="5" height="5"/><rect x="65" fill="#EAE6D8" width="5" height="5"/><rect x="90" y="10" fill="#EAE6D8" width="5" height="5"/><rect x="105" y="20" fill="#EAE6D8" width="5" height="5"/><rect x="105" y="35" fill="#EAE6D8" width="5" height="5"/><polygon fill="#EAE6D8" points="110,35 115,35 115,29.5 115,25 110,25 110,29.5"/><rect x="35" y="25" fill="#EAE6D8" width="5" height="5"/><rect x="35" y="15" fill="#EAE6D8" width="5" height="5"/><rect x="30" y="30" fill="#EAE6D8" width="5" height="5"/><rect x="25" y="25" fill="#EAE6D8" width="5" height="5"/><polygon fill="#EAE6D8" points="15,44.5 15,40 10,40 10,44.5 10,50 15,50"/><rect x="20" y="30" fill="#EAE6D8" width="5" height="5"/><rect x="15" y="35" fill="#EAE6D8" width="5" height="5"/><polygon fill="#EAE6D8" points="60,70 55,70 55,75 60,75 65,75 70,75 70,70 65,70"/><rect x="55" fill="#EAE6D8" width="5" height="5"/><rect x="50" y="5" fill="#EAE6D8" width="5" height="5"/><polygon fill="#EAE6D8" points="50,15 50,10 45,10 40,10 40,15 45,15"/><polygon fill="#EAE6D8" points="85,70 80,70 80,75 85,75 90,75 95,75 95,70 90,70"/></g><g><polygon fill="#E2DED5" points="85,55 85,59.5 85,65 90,65 90,60 95,60 95,55 90,55"/><rect x="95" y="50" fill="#E2DED5" width="5" height="5"/><rect x="100" y="45" fill="#E2DED5" width="5" height="5"/><polygon fill="#E2DED5" points="65,20 65,15 60,15 55,15 55,20 60,20"/><rect x="50" y="20" fill="#E2DED5" width="5" height="5"/><rect x="45" y="30" fill="#E2DED5" width="5" height="5"/><rect x="25" y="55" fill="#E2DED5" width="5" height="5"/><polygon fill="#E2DED5" points="30,60 30,65 35,65 40,65 40,60 35,60"/><polygon fill="#E2DED5" points="40,55 40,60 45,60 50,60 50,55 45,55"/><rect x="50" y="50" fill="#E2DED5" width="5" height="5"/><rect x="55" y="55" fill="#E2DED5" width="5" height="5"/><rect x="60" y="60" fill="#E2DED5" width="5" height="5"/><rect x="65" y="55" fill="#E2DED5" width="5" height="5"/></g></g></svg>