<svg xmlns="http://www.w3.org/2000/svg" width="81px" height="46px" viewBox="0 0 81 46" enable-background="new 0 0 81 46"><polygon opacity="0.4" fill="#999999" points="76,21 76,16 71,16 71,11.088 71,6 66,6 66,1 61,1 61,6 56,6 56,11 51,11 46,11 46,6 41,6 36,6 36,1 31,1 31,6 26,6 21,6 21,11 16,11 16,16 11,16 11,21 6,21 6,26 1,26 1,31 6,31 6,36 11,36 16,36 16,31 21,31 21,36 26,36 31,36 31,41 36,41 36,46 41,46 46,46 51,46 51,41 56,41 61,41 61,36 61,31 66,31 71,31 76,31 76,26 81,26 81,21 "/>
<g><g><rect x="35" y="15" fill="#E2DED5" width="5" height="5"/><polygon fill="#E2DED5" points="45,20 40,20 40,25 45,25 50,25 50,20 "/></g><path fill="#FFFFFF" d="M70,20v-5h-5v-4.912V5h-5v5h-5v5h-5h-5v-5h-5h-5V5h-5v5h-5h-5v5h-5v5h-5v5H5v5h5h5v-5h5v5h5v5h5h5v5h5h5h5v-5h5h5v-5h5v-5h5h5v-5H70z M40,15v5h5h5v5h-5h-5v-5h-5v-5H40z"/><g><rect y="25" fill="#EAE6D8" width="5" height="5"/><rect x="5" y="20" fill="#EAE6D8" width="5" height="5"/><rect x="15" y="10" fill="#EAE6D8" width="5" height="5"/><polygon fill="#EAE6D8" points="20,5 20,10 25,10 30,10 30,5 25,5 "/><rect x="55" y="5" fill="#EAE6D8" width="5" height="5"/><rect x="60" fill="#EAE6D8" width="5" height="5"/><polygon fill="#EAE6D8" points="70,5 65,5 65,10.088 65,15 70,15 70,10.088 "/><rect x="75" y="20" fill="#EAE6D8" width="5" height="5"/><rect x="70" y="15" fill="#EAE6D8" width="5" height="5"/><polygon fill="#EAE6D8" points="10,35 15,35 15,30 10,30 5,30 5,35 "/><rect x="15" y="25" fill="#EAE6D8" width="5" height="5"/><rect x="20" y="30" fill="#EAE6D8" width="5" height="5"/><rect x="30" y="35" fill="#EAE6D8" width="5" height="5"/><polygon fill="#EAE6D8" points="50,35 50,40 55,40 60,40 60,35 55,35 "/><polygon fill="#EAE6D8" points="40,40 35,40 35,45 40,45 45,45 50,45 50,40 45,40 "/><rect x="10" y="15" fill="#EAE6D8" width="5" height="5"/><rect x="30" fill="#EAE6D8" width="5" height="5"/><polygon fill="#EAE6D8" points="65,25 65,30 70,30 75,30 75,25 70,25 "/><polygon fill="#EAE6D8" points="45,10 45,15 50,15 55,15 55,10 50,10 "/><polygon fill="#EAE6D8" points="40,5 35,5 35,10 40,10 45,10 45,5 "/></g></g></svg>