<svg xmlns="http://www.w3.org/2000/svg" width="80px" height="20px" viewBox="0 0 80 20"><g><polygon opacity="0.4" fill="#999999" enable-background="new" points="28.5,6 28.5,4 28.5,2 28.5,0 30.5,0 30.5,2 30.5,4 32.5,4 32.5,6 34.5,6 34.5,8 34.5,10 34.5,12.499 32.5,12.499 32.5,14.502 30.5,14.502 30.5,16 32.5,16 32.5,18.51 30.5,18.51 30.5,20 28.5,20 28.5,18 28.5,16 28.5,14 28.5,12.499 26.5,12.499 26.5,10 26.5,8 26.5,6"/><g><rect x="30" y="16" fill="#1D1D1F" width="2" height="2"/><rect x="30" y="12" fill="#876436" width="2" height="2"/><rect x="32" y="10" fill="#4C4C51" width="2" height="2"/><rect x="32" y="8" fill="#4C4C51" width="2" height="2"/><rect x="32" y="6" fill="#633618" width="2" height="2"/><rect x="28" y="10" fill="#663526" width="2" height="2"/><rect x="28" y="8" fill="#593325" width="2" height="2"/><rect x="28" y="6" fill="#593325" width="2" height="2"/><rect x="30" y="10" fill="#876436" width="2" height="2"/><rect x="30" y="8" fill="#77531F" width="2" height="2"/><rect x="30" y="6" fill="#77531F" width="2" height="2"/><rect x="30" y="4" fill="#593325" width="2" height="2"/><rect x="28" y="2" fill="#F2E6CE" width="2" height="2"/><rect x="28" fill="#283740" width="2" height="2"/><rect x="28" y="4" fill="#663526" width="2" height="2"/><rect x="28" y="18" fill="#1D1D1F" width="2" height="2"/><rect x="28" y="16" fill="#F2E6CE" width="2" height="2"/><rect x="28" y="14" fill="#876436" width="2" height="2"/><rect x="28" y="12" fill="#876436" width="2" height="2"/><rect x="26" y="10" fill="#4C4C51" width="2" height="2"/><rect x="26" y="8" fill="#4C4C51" width="2" height="2"/><rect x="26" y="6" fill="#633618" width="2" height="2"/></g></g><g><polygon opacity="0.4" fill="#999999" enable-background="new" points="68.5,6 68.5,4 68.5,2 68.5,0 70.5,0 70.5,2 70.5,4 72.5,4 72.5,6 74.5,6 74.5,8 74.5,10 74.5,12.499 72.5,12.499 72.5,14.5 70.5,14.5 70.5,16 72.5,16 72.5,18.5 70.5,18.5 70.5,20 68.5,20 68.5,18 68.5,16 68.5,14 68.5,12.499 66.5,12.499 66.5,10 66.5,8 66.5,6"/><g><rect x="70" y="16" fill="#1D1D1F" width="2" height="2"/><rect x="70" y="12" fill="#876436" width="2" height="2"/><rect x="72" y="10" fill="#4C4C51" width="2" height="2"/><rect x="72" y="8" fill="#4C4C51" width="2" height="2"/><rect x="72" y="6" fill="#633618" width="2" height="2"/><rect x="68" y="10" fill="#663526" width="2" height="2"/><rect x="68" y="8" fill="#593325" width="2" height="2"/><rect x="68" y="6" fill="#593325" width="2" height="2"/><rect x="70" y="10" fill="#876436" width="2" height="2"/><rect x="70" y="8" fill="#77531F" width="2" height="2"/><rect x="70" y="6" fill="#77531F" width="2" height="2"/><rect x="70" y="4" fill="#593325" width="2" height="2"/><rect x="68" y="2" fill="#F2E6CE" width="2" height="2"/><rect x="68" fill="#283740" width="2" height="2"/><rect x="68" y="4" fill="#663526" width="2" height="2"/><rect x="68" y="18" fill="#1D1D1F" width="2" height="2"/><rect x="68" y="16" fill="#F2E6CE" width="2" height="2"/><rect x="68" y="14" fill="#876436" width="2" height="2"/><rect x="68" y="12" fill="#876436" width="2" height="2"/><rect x="66" y="10" fill="#4C4C51" width="2" height="2"/><rect x="66" y="8" fill="#4C4C51" width="2" height="2"/><rect x="66" y="6" fill="#633618" width="2" height="2"/></g></g><g><polygon opacity="0.4" fill="#999999" enable-background="new" points="6.5,18 6.5,16 6.5,14 6.5,12 6.5,10 6.5,8 6.5,6 8.5,6 8.5,4 8.5,2 8.5,0 10.5,0 10.5,2 10.5,4 12.5,4 12.5,6 14.5,6 14.5,8 14.5,10 14.5,12 12.5,12 12.5,14 14.5,14 14.5,16 14.5,18 14.5,20 12.5,20 12.5,18 12.5,16 12.5,14.5 10.5,14.5 10.5,12.5 8.5,12.5 8.5,14 8.5,16 8.5,18.5 6.5,18.5 6.5,20 4.5,20 4.5,18"/><g><rect x="12" y="18" fill="#1D1D1F" width="2" height="2"/><rect x="10" y="12" fill="#876436" width="2" height="2"/><rect x="12" y="14" fill="#876436" width="2" height="2"/><rect x="12" y="10" fill="#4C4C51" width="2" height="2"/><rect x="12" y="8" fill="#4C4C51" width="2" height="2"/><rect x="12" y="6" fill="#633618" width="2" height="2"/><rect x="8" y="10" fill="#663526" width="2" height="2"/><rect x="8" y="8" fill="#593325" width="2" height="2"/><rect x="8" y="6" fill="#593325" width="2" height="2"/><rect x="10" y="10" fill="#876436" width="2" height="2"/><rect x="10" y="8" fill="#77531F" width="2" height="2"/><rect x="10" y="6" fill="#77531F" width="2" height="2"/><rect x="10" y="4" fill="#593325" width="2" height="2"/><rect x="8" y="2" fill="#F2E6CE" width="2" height="2"/><rect x="8" fill="#283740" width="2" height="2"/><rect x="8" y="4" fill="#663526" width="2" height="2"/><rect x="4" y="18" fill="#1D1D1F" width="2" height="2"/><rect x="6" y="16" fill="#F2E6CE" width="2" height="2"/><rect x="12" y="16" fill="#F2E6CE" width="2" height="2"/><rect x="6" y="14" fill="#876436" width="2" height="2"/><rect x="6" y="12" fill="#876436" width="2" height="2"/><rect x="6" y="10" fill="#4C4C51" width="2" height="2"/><rect x="6" y="8" fill="#4C4C51" width="2" height="2"/><rect x="6" y="6" fill="#633618" width="2" height="2"/></g></g><g><polygon opacity="0.4" fill="#999999" enable-background="new" points="48.5,6 48.5,4 48.5,2 48.5,0 50.5,0 50.5,2 50.5,4 52.5,4 52.5,6 54.5,6 54.5,8 54.5,10 54.5,12.499 52.5,12.499 52.5,14.5 50.5,14.5 50.5,16 52.5,16 54.5,16 54.5,18.505 52.5,18.505 50.5,18.505 50.5,16.5 48.5,16.5 48.5,18 48.5,20 46.5,20 46.5,18 46.5,16 46.5,14 48.5,14 48.5,12.499 46.5,12.499 46.5,10 46.5,8 46.5,6"/><g><rect x="52" y="16" fill="#1D1D1F" width="2" height="2"/><rect x="50" y="12" fill="#876436" width="2" height="2"/><rect x="52" y="10" fill="#4C4C51" width="2" height="2"/><rect x="52" y="8" fill="#4C4C51" width="2" height="2"/><rect x="52" y="6" fill="#633618" width="2" height="2"/><rect x="48" y="10" fill="#663526" width="2" height="2"/><rect x="48" y="8" fill="#593325" width="2" height="2"/><rect x="48" y="6" fill="#593325" width="2" height="2"/><rect x="50" y="10" fill="#876436" width="2" height="2"/><rect x="50" y="8" fill="#77531F" width="2" height="2"/><rect x="50" y="6" fill="#77531F" width="2" height="2"/><rect x="50" y="4" fill="#593325" width="2" height="2"/><rect x="48" y="2" fill="#F2E6CE" width="2" height="2"/><rect x="48" fill="#283740" width="2" height="2"/><rect x="48" y="4" fill="#663526" width="2" height="2"/><rect x="46" y="18" fill="#1D1D1F" width="2" height="2"/><rect x="46" y="16" fill="#F2E6CE" width="2" height="2"/><rect x="50" y="16" fill="#F2E6CE" width="2" height="2"/><rect x="48" y="14" fill="#876436" width="2" height="2"/><rect x="46" y="14" fill="#876436" width="2" height="2"/><rect x="48" y="12" fill="#876436" width="2" height="2"/><rect x="46" y="10" fill="#4C4C51" width="2" height="2"/><rect x="46" y="8" fill="#4C4C51" width="2" height="2"/><rect x="46" y="6" fill="#633618" width="2" height="2"/></g></g></svg>