<svg xmlns="http://www.w3.org/2000/svg" width="20px" height="20px"><g><polygon opacity="0.4" fill="#999999" enable-background="new" points="12.5,6 12.5,4 10.5,4 10.5,2 10.5,0 8.5,0 8.5,2 8.5,4 8.5,6 6.5,6 6.5,8 6.5,10 6.5,12 6.5,14 6.5,16 6.5,18 6.5,20 8.5,20 8.5,18 8.5,16 8.5,14 8.5,12.494 10.5,12.494 12.5,12.494 12.5,14 12.5,16 12.5,18 12.5,20 14.5,20 14.5,18 14.5,16 14.5,14 14.5,12 14.5,10 14.5,8 14.5,6"/><g><rect x="6" y="18" fill="#1D1D1F" width="2" height="2"/><rect x="6" y="12" fill="#876436" width="2" height="2"/><rect x="6" y="10" fill="#4C4C51" width="2" height="2"/><rect x="6" y="8" fill="#4C4C51" width="2" height="2"/><rect x="6" y="6" fill="#633618" width="2" height="2"/><rect x="10" y="10" fill="#663526" width="2" height="2"/><rect x="10" y="8" fill="#593325" width="2" height="2"/><rect x="10" y="6" fill="#593325" width="2" height="2"/><rect x="8" y="10" fill="#876436" width="2" height="2"/><rect x="8" y="8" fill="#77531F" width="2" height="2"/><rect x="8" y="6" fill="#77531F" width="2" height="2"/><rect x="8" y="4" fill="#593325" width="2" height="2"/><rect x="8" y="2" fill="#F2E6CE" width="2" height="2"/><rect x="8" y="0" fill="#283740" width="2" height="2"/><rect x="10" y="4" fill="#663526" width="2" height="2"/><rect x="12" y="18" fill="#1D1D1F" width="2" height="2"/><rect x="6" y="16" fill="#F2E6CE" width="2" height="2"/><rect x="12" y="16" fill="#F2E6CE" width="2" height="2"/><rect x="6" y="14" fill="#876436" width="2" height="2"/><rect x="12" y="14" fill="#876436" width="2" height="2"/><rect x="12" y="12" fill="#876436" width="2" height="2"/><rect x="12" y="10" fill="#4C4C51" width="2" height="2"/><rect x="12" y="8" fill="#4C4C51" width="2" height="2"/><rect x="12" y="6" fill="#633618" width="2" height="2"/></g></g></svg>