<svg xmlns="http://www.w3.org/2000/svg" width="40px" height="20px" viewBox="0 0 40 20"><g><polygon opacity="0.4" fill="#999999" points="32.5,6 32.5,4 32.5,2 32.5,0 30.5,0 30.5,2 30.5,4 28.5,4 28.5,6 26.5,6 26.5,8 26.5,10 26.5,12 26.5,14 26.5,16 26.5,18 26.5,20 28.5,20 28.5,18 28.5,16 28.5,14 28.5,12.494 30.5,12.494 32.5,12.494 32.5,14 32.5,16 32.5,18 32.5,20 34.5,20 34.5,18 34.5,16 34.5,14 34.5,12 34.5,10 34.5,8 34.5,6 "/><g><rect x="26" y="18" fill="#1D1D1F" width="2" height="2"/><rect x="26" y="12" fill="#876436" width="2" height="2"/><rect x="26" y="10" fill="#4C4C51" width="2" height="2"/><rect x="26" y="8" fill="#4C4C51" width="2" height="2"/><rect x="26" y="6" fill="#633618" width="2" height="2"/><rect x="30" y="10" fill="#663526" width="2" height="2"/><rect x="30" y="8" fill="#593325" width="2" height="2"/><rect x="30" y="6" fill="#593325" width="2" height="2"/><rect x="28" y="10" fill="#876436" width="2" height="2"/><rect x="28" y="8" fill="#77531F" width="2" height="2"/><rect x="28" y="6" fill="#77531F" width="2" height="2"/><rect x="28" y="4" fill="#593325" width="2" height="2"/><rect x="30" y="2" fill="#F2E6CE" width="2" height="2"/><rect x="30" fill="#283740" width="2" height="2"/><rect x="30" y="4" fill="#663526" width="2" height="2"/><rect x="32" y="18" fill="#1D1D1F" width="2" height="2"/><rect x="26" y="16" fill="#F2E6CE" width="2" height="2"/><rect x="32" y="16" fill="#F2E6CE" width="2" height="2"/><rect x="26" y="14" fill="#876436" width="2" height="2"/><rect x="32" y="14" fill="#876436" width="2" height="2"/><rect x="32" y="12" fill="#876436" width="2" height="2"/><rect x="32" y="10" fill="#4C4C51" width="2" height="2"/><rect x="32" y="8" fill="#4C4C51" width="2" height="2"/><rect x="32" y="6" fill="#633618" width="2" height="2"/></g></g><g><polygon opacity="0.4" fill="#999999" points="12.5,6 12.5,4 10.5,4 10.5,2 10.5,0 8.5,0 8.5,2 8.5,4 8.5,6 6.5,6 6.5,8 6.5,10 6.5,12 6.5,14 6.5,16 6.5,18 6.5,20 8.5,20 8.5,18 8.5,16 8.5,14 8.5,12.494 10.5,12.494 12.5,12.494 12.5,14 12.5,16 12.5,18 12.5,20 14.5,20 14.5,18 14.5,16 14.5,14 14.5,12 14.5,10 14.5,8 14.5,6 "/><g><rect x="6" y="18" fill="#1D1D1F" width="2" height="2"/><rect x="6" y="12" fill="#876436" width="2" height="2"/><rect x="6" y="10" fill="#4C4C51" width="2" height="2"/><rect x="6" y="8" fill="#4C4C51" width="2" height="2"/><rect x="6" y="6" fill="#633618" width="2" height="2"/><rect x="10" y="10" fill="#663526" width="2" height="2"/><rect x="10" y="8" fill="#593325" width="2" height="2"/><rect x="10" y="6" fill="#593325" width="2" height="2"/><rect x="8" y="10" fill="#876436" width="2" height="2"/><rect x="8" y="8" fill="#77531F" width="2" height="2"/><rect x="8" y="6" fill="#77531F" width="2" height="2"/><rect x="8" y="4" fill="#593325" width="2" height="2"/><rect x="8" y="2" fill="#F2E6CE" width="2" height="2"/><rect x="8" fill="#283740" width="2" height="2"/><rect x="10" y="4" fill="#663526" width="2" height="2"/><rect x="12" y="18" fill="#1D1D1F" width="2" height="2"/><rect x="6" y="16" fill="#F2E6CE" width="2" height="2"/><rect x="12" y="16" fill="#F2E6CE" width="2" height="2"/><rect x="6" y="14" fill="#876436" width="2" height="2"/><rect x="12" y="14" fill="#876436" width="2" height="2"/><rect x="12" y="12" fill="#876436" width="2" height="2"/><rect x="12" y="10" fill="#4C4C51" width="2" height="2"/><rect x="12" y="8" fill="#4C4C51" width="2" height="2"/><rect x="12" y="6" fill="#633618" width="2" height="2"/></g></g></svg>