<svg xmlns="http://www.w3.org/2000/svg" width="320px" height="20px" viewBox="0 0 320 20"><g><polygon opacity="0.4" fill="#999999" enable-background="new" points="12.5,6 12.5,4 12.5,2 12.5,0 10.5,0 10.5,2 10.5,4 8.5,4 8.5,6 6.5,6 6.5,8 6.5,10 6.5,12 6.5,14 6.5,16 6.5,18 6.5,20 8.5,20 8.5,18 8.5,16 8.5,14 8.5,12.494 10.5,12.494 12.5,12.494 12.5,14 12.5,16 12.5,18 12.5,20 14.5,20 14.5,18 14.5,16 14.5,14 14.5,12 14.5,10 14.5,8 14.5,6"/><g><rect x="6" y="18" fill="#1D1D1F" width="2" height="2"/><rect x="6" y="12" fill="#876436" width="2" height="2"/><rect x="6" y="10" fill="#4C4C51" width="2" height="2"/><rect x="6" y="8" fill="#4C4C51" width="2" height="2"/><rect x="6" y="6" fill="#633618" width="2" height="2"/><rect x="10" y="10" fill="#663526" width="2" height="2"/><rect x="10" y="8" fill="#593325" width="2" height="2"/><rect x="10" y="6" fill="#593325" width="2" height="2"/><rect x="8" y="10" fill="#876436" width="2" height="2"/><rect x="8" y="8" fill="#77531F" width="2" height="2"/><rect x="8" y="6" fill="#77531F" width="2" height="2"/><rect x="8" y="4" fill="#593325" width="2" height="2"/><rect x="10" y="2" fill="#F2E6CE" width="2" height="2"/><rect x="10" fill="#283740" width="2" height="2"/><rect x="10" y="4" fill="#663526" width="2" height="2"/><rect x="12" y="18" fill="#1D1D1F" width="2" height="2"/><rect x="6" y="16" fill="#F2E6CE" width="2" height="2"/><rect x="12" y="16" fill="#F2E6CE" width="2" height="2"/><rect x="6" y="14" fill="#876436" width="2" height="2"/><rect x="12" y="14" fill="#876436" width="2" height="2"/><rect x="12" y="12" fill="#876436" width="2" height="2"/><rect x="12" y="10" fill="#4C4C51" width="2" height="2"/><rect x="12" y="8" fill="#4C4C51" width="2" height="2"/><rect x="12" y="6" fill="#633618" width="2" height="2"/></g></g><polygon opacity="0.4" fill="#999999" enable-background="new" points="32.5,2 32.5,4 30.5,4 30.5,6 28.5,6 28.5,8 28.5,10 26.5,10 26.5,12 26.5,14 26.5,16 26.5,18 26.5,20 28.5,20 28.5,18 28.5,16 28.5,14 28.5,12.5 30.5,12.5 32.5,12.5 32.5,14 32.5,16 32.5,18 32.5,20 34.5,20 34.5,18 34.5,16 34.5,14 34.5,12 34.5,10 34.5,8 34.5,6 34.5,4 34.5,2 "/><g><rect x="26" y="18" fill="#1D1D1F" width="2" height="2"/><rect x="26" y="12" fill="#876436" width="2" height="2"/><rect x="26" y="10" fill="#4C4C51" width="2" height="2"/><rect x="30" y="10" fill="#663526" width="2" height="2"/><rect x="30" y="8" fill="#593325" width="2" height="2"/><rect x="30" y="6" fill="#593325" width="2" height="2"/><rect x="28" y="10" fill="#876436" width="2" height="2"/><rect x="28" y="8" fill="#77531F" width="2" height="2"/><rect x="28" y="6" fill="#77531F" width="2" height="2"/><rect x="32" y="4" fill="#F2E6CE" width="2" height="2"/><rect x="32" y="2" fill="#283740" width="2" height="2"/><rect x="30" y="4" fill="#663526" width="2" height="2"/><rect x="32" y="18" fill="#1D1D1F" width="2" height="2"/><rect x="26" y="16" fill="#F2E6CE" width="2" height="2"/><rect x="32" y="16" fill="#F2E6CE" width="2" height="2"/><rect x="26" y="14" fill="#876436" width="2" height="2"/><rect x="32" y="14" fill="#876436" width="2" height="2"/><rect x="32" y="12" fill="#876436" width="2" height="2"/><rect x="32" y="10" fill="#4C4C51" width="2" height="2"/><rect x="32" y="8" fill="#4C4C51" width="2" height="2"/><rect x="32" y="6" fill="#633618" width="2" height="2"/></g><polygon opacity="0.4" fill="#999999" enable-background="new" points="52.5,6 52.5,8 50.5,8 50.5,10 48.5,10 48.5,12 48.5,14 46.5,14 46.5,16 46.5,18 46.5,20 48.5,20 48.5,18 48.5,16.497 50.5,16.497 52.5,16.497 52.5,18 52.5,20 54.5,20 54.5,18 54.5,16 54.5,14 54.5,12 54.5,10 54.5,8 54.5,6 "/><g><rect x="46" y="18" fill="#1D1D1F" width="2" height="2"/><rect x="46" y="14" fill="#4C4C51" width="2" height="2"/><rect x="50" y="14" fill="#663526" width="2" height="2"/><rect x="50" y="12" fill="#593325" width="2" height="2"/><rect x="50" y="10" fill="#593325" width="2" height="2"/><rect x="48" y="14" fill="#876436" width="2" height="2"/><rect x="48" y="12" fill="#77531F" width="2" height="2"/><rect x="48" y="10" fill="#77531F" width="2" height="2"/><rect x="52" y="8" fill="#F2E6CE" width="2" height="2"/><rect x="52" y="6" fill="#283740" width="2" height="2"/><rect x="50" y="8" fill="#663526" width="2" height="2"/><rect x="52" y="18" fill="#1D1D1F" width="2" height="2"/><rect x="46" y="16" fill="#F2E6CE" width="2" height="2"/><rect x="52" y="16" fill="#F2E6CE" width="2" height="2"/><rect x="52" y="14" fill="#4C4C51" width="2" height="2"/><rect x="52" y="12" fill="#4C4C51" width="2" height="2"/><rect x="52" y="10" fill="#633618" width="2" height="2"/></g><g opacity="0.4"><rect x="76.5" y="16" fill="#999999" width="2" height="2.499"/><polygon fill="#999999" points="74.5,14 74.5,12 74.5,10 74.5,8 74.5,6 72.5,6 72.5,8 70.5,8 70.5,10 68.5,10 68.5,12 68.5,14 66.5,14 66.5,16 66.5,18 66.5,20 68.5,20 68.5,18 68.5,16.499 70.5,16.499 72.5,16.499 72.5,18 72.5,20 74.5,20 74.5,18 74.5,16.499 76.5,16.499 76.5,14"/></g><g><rect x="66" y="18" fill="#1D1D1F" width="2" height="2"/><rect x="66" y="14" fill="#4C4C51" width="2" height="2"/><rect x="70" y="14" fill="#663526" width="2" height="2"/><rect x="70" y="12" fill="#593325" width="2" height="2"/><rect x="70" y="10" fill="#593325" width="2" height="2"/><rect x="68" y="14" fill="#876436" width="2" height="2"/><rect x="68" y="12" fill="#77531F" width="2" height="2"/><rect x="68" y="10" fill="#77531F" width="2" height="2"/><rect x="72" y="8" fill="#F2E6CE" width="2" height="2"/><rect x="72" y="6" fill="#283740" width="2" height="2"/><rect x="70" y="8" fill="#663526" width="2" height="2"/><rect x="72" y="18" fill="#1D1D1F" width="2" height="2"/><rect x="66" y="16" fill="#F2E6CE" width="2" height="2"/><rect x="72" y="16" fill="#F2E6CE" width="2" height="2"/><rect x="76" y="16" fill="#F2E6CE" width="2" height="2"/><rect x="78" y="18" fill="#66625D" width="2" height="2"/><rect x="72" y="14" fill="#4C4C51" width="2" height="2"/><rect x="74" y="14" fill="#4C4C51" width="2" height="2"/><rect x="72" y="12" fill="#4C4C51" width="2" height="2"/><rect x="72" y="10" fill="#633618" width="2" height="2"/></g><g opacity="0.4"><rect x="116.5" y="16" fill="#999999" width="2" height="2.499"/><polygon fill="#999999" points="114.5,14 114.5,12 114.5,10 114.5,8 114.5,6 112.5,6 112.5,8 110.5,8 110.5,10 108.5,10 108.5,12 108.5,14 106.5,14 106.5,16 106.5,18 106.5,20 108.5,20 108.5,18 108.5,16.499 110.5,16.499 112.5,16.499 112.5,18 112.5,20 114.5,20 114.5,18 114.5,16.499 116.5,16.499 116.5,14"/></g><g><rect x="106" y="18" fill="#1D1D1F" width="2" height="2"/><rect x="106" y="14" fill="#4C4C51" width="2" height="2"/><rect x="110" y="14" fill="#663526" width="2" height="2"/><rect x="110" y="12" fill="#593325" width="2" height="2"/><rect x="110" y="10" fill="#593325" width="2" height="2"/><rect x="108" y="14" fill="#876436" width="2" height="2"/><rect x="108" y="12" fill="#77531F" width="2" height="2"/><rect x="108" y="10" fill="#77531F" width="2" height="2"/><rect x="112" y="8" fill="#F2E6CE" width="2" height="2"/><rect x="112" y="6" fill="#283740" width="2" height="2"/><rect x="110" y="8" fill="#663526" width="2" height="2"/><rect x="112" y="18" fill="#1D1D1F" width="2" height="2"/><rect x="106" y="16" fill="#F2E6CE" width="2" height="2"/><rect x="112" y="16" fill="#F2E6CE" width="2" height="2"/><rect x="116" y="16" fill="#F2E6CE" width="2" height="2"/><rect x="118" y="18" fill="#66625D" width="2" height="2"/><rect x="112" y="14" fill="#4C4C51" width="2" height="2"/><rect x="114" y="14" fill="#4C4C51" width="2" height="2"/><rect x="112" y="12" fill="#4C4C51" width="2" height="2"/><rect x="112" y="10" fill="#633618" width="2" height="2"/></g><g opacity="0.4"><rect x="156.5" y="16" fill="#999999" width="2" height="2.499"/><polygon fill="#999999" points="154.5,14 154.5,12 154.5,10 154.5,8 154.5,6 152.5,6 152.5,8 150.5,8 150.5,10 148.5,10 148.5,12 148.5,14 146.5,14 146.5,16 146.5,18 146.5,20 148.5,20 148.5,18 148.5,16.499 150.5,16.499 152.5,16.499 152.5,18 152.5,20 154.5,20 154.5,18 154.5,16.499 156.5,16.499 156.5,14"/></g><g><rect x="146" y="18" fill="#1D1D1F" width="2" height="2"/><rect x="146" y="14" fill="#4C4C51" width="2" height="2"/><rect x="150" y="14" fill="#663526" width="2" height="2"/><rect x="150" y="12" fill="#593325" width="2" height="2"/><rect x="150" y="10" fill="#593325" width="2" height="2"/><rect x="148" y="14" fill="#876436" width="2" height="2"/><rect x="148" y="12" fill="#77531F" width="2" height="2"/><rect x="148" y="10" fill="#77531F" width="2" height="2"/><rect x="152" y="8" fill="#F2E6CE" width="2" height="2"/><rect x="152" y="6" fill="#283740" width="2" height="2"/><rect x="150" y="8" fill="#663526" width="2" height="2"/><rect x="152" y="18" fill="#1D1D1F" width="2" height="2"/><rect x="146" y="16" fill="#F2E6CE" width="2" height="2"/><rect x="152" y="16" fill="#F2E6CE" width="2" height="2"/><rect x="156" y="16" fill="#F2E6CE" width="2" height="2"/><rect x="158" y="18" fill="#66625D" width="2" height="2"/><rect x="152" y="14" fill="#4C4C51" width="2" height="2"/><rect x="154" y="14" fill="#4C4C51" width="2" height="2"/><rect x="152" y="12" fill="#4C4C51" width="2" height="2"/><rect x="152" y="10" fill="#633618" width="2" height="2"/></g><g opacity="0.4"><rect x="196.5" y="16" fill="#999999" width="2" height="2.499"/><polygon fill="#999999" points="194.5,14 194.5,12 194.5,10 194.5,8 194.5,6 192.5,6 192.5,8 190.5,8 190.5,10 188.5,10 188.5,12 188.5,14 186.5,14 186.5,16 186.5,18 186.5,20 188.5,20 188.5,18 188.5,16.499 190.5,16.499 192.5,16.499 192.5,18 192.5,20 194.5,20 194.5,18 194.5,16.499 196.5,16.499 196.5,14"/></g><g><rect x="186" y="18" fill="#1D1D1F" width="2" height="2"/><rect x="186" y="14" fill="#4C4C51" width="2" height="2"/><rect x="190" y="14" fill="#663526" width="2" height="2"/><rect x="190" y="12" fill="#593325" width="2" height="2"/><rect x="190" y="10" fill="#593325" width="2" height="2"/><rect x="188" y="14" fill="#876436" width="2" height="2"/><rect x="188" y="12" fill="#77531F" width="2" height="2"/><rect x="188" y="10" fill="#77531F" width="2" height="2"/><rect x="192" y="8" fill="#F2E6CE" width="2" height="2"/><rect x="192" y="6" fill="#283740" width="2" height="2"/><rect x="190" y="8" fill="#663526" width="2" height="2"/><rect x="192" y="18" fill="#1D1D1F" width="2" height="2"/><rect x="186" y="16" fill="#F2E6CE" width="2" height="2"/><rect x="192" y="16" fill="#F2E6CE" width="2" height="2"/><rect x="196" y="16" fill="#F2E6CE" width="2" height="2"/><rect x="198" y="18" fill="#66625D" width="2" height="2"/><rect x="192" y="14" fill="#4C4C51" width="2" height="2"/><rect x="194" y="14" fill="#4C4C51" width="2" height="2"/><rect x="192" y="12" fill="#4C4C51" width="2" height="2"/><rect x="192" y="10" fill="#633618" width="2" height="2"/></g><g opacity="0.4"><rect x="96.5" y="14" fill="#999999" width="2" height="2.499"/><polygon fill="#999999" points="94.5,14 94.5,12 94.5,10 94.5,8 94.5,6 92.5,6 92.5,8 90.5,8 90.5,10 88.5,10 88.5,12 88.5,14 86.5,14 86.5,16 86.5,18 86.5,20 88.5,20 88.5,18 88.5,16.499 90.5,16.499 92.5,16.499 92.5,18 92.5,20 94.5,20 94.5,18 94.5,16.499 96.5,16.499 96.5,14"/></g><g><rect x="86" y="18" fill="#1D1D1F" width="2" height="2"/><rect x="86" y="14" fill="#4C4C51" width="2" height="2"/><rect x="90" y="14" fill="#663526" width="2" height="2"/><rect x="90" y="12" fill="#593325" width="2" height="2"/><rect x="90" y="10" fill="#593325" width="2" height="2"/><rect x="88" y="14" fill="#876436" width="2" height="2"/><rect x="88" y="12" fill="#77531F" width="2" height="2"/><rect x="88" y="10" fill="#77531F" width="2" height="2"/><rect x="92" y="8" fill="#F2E6CE" width="2" height="2"/><rect x="92" y="6" fill="#283740" width="2" height="2"/><rect x="90" y="8" fill="#663526" width="2" height="2"/><rect x="92" y="18" fill="#1D1D1F" width="2" height="2"/><rect x="86" y="16" fill="#F2E6CE" width="2" height="2"/><rect x="92" y="16" fill="#F2E6CE" width="2" height="2"/><rect x="96" y="14" fill="#F2E6CE" width="2" height="2"/><rect x="98" y="16" fill="#66625D" width="2" height="2"/><rect x="92" y="14" fill="#4C4C51" width="2" height="2"/><rect x="94" y="14" fill="#4C4C51" width="2" height="2"/><rect x="92" y="12" fill="#4C4C51" width="2" height="2"/><rect x="92" y="10" fill="#633618" width="2" height="2"/></g><g opacity="0.4"><rect x="136.5" y="14" fill="#999999" width="2" height="2.499"/><polygon fill="#999999" points="134.5,14 134.5,12 134.5,10 134.5,8 134.5,6 132.5,6 132.5,8 130.5,8 130.5,10 128.5,10 128.5,12 128.5,14 126.5,14 126.5,16 126.5,18 126.5,20 128.5,20 128.5,18 128.5,16.499 130.5,16.499 132.5,16.499 132.5,18 132.5,20 134.5,20 134.5,18 134.5,16.499 136.5,16.499 136.5,14"/></g><g><rect x="126" y="18" fill="#1D1D1F" width="2" height="2"/><rect x="126" y="14" fill="#4C4C51" width="2" height="2"/><rect x="130" y="14" fill="#663526" width="2" height="2"/><rect x="130" y="12" fill="#593325" width="2" height="2"/><rect x="130" y="10" fill="#593325" width="2" height="2"/><rect x="128" y="14" fill="#876436" width="2" height="2"/><rect x="128" y="12" fill="#77531F" width="2" height="2"/><rect x="128" y="10" fill="#77531F" width="2" height="2"/><rect x="132" y="8" fill="#F2E6CE" width="2" height="2"/><rect x="132" y="6" fill="#283740" width="2" height="2"/><rect x="130" y="8" fill="#663526" width="2" height="2"/><rect x="132" y="18" fill="#1D1D1F" width="2" height="2"/><rect x="126" y="16" fill="#F2E6CE" width="2" height="2"/><rect x="132" y="16" fill="#F2E6CE" width="2" height="2"/><rect x="136" y="14" fill="#F2E6CE" width="2" height="2"/><rect x="138" y="16" fill="#66625D" width="2" height="2"/><rect x="132" y="14" fill="#4C4C51" width="2" height="2"/><rect x="134" y="14" fill="#4C4C51" width="2" height="2"/><rect x="132" y="12" fill="#4C4C51" width="2" height="2"/><rect x="132" y="10" fill="#633618" width="2" height="2"/></g><g opacity="0.4"><rect x="176.5" y="14" fill="#999999" width="2" height="2.499"/><polygon fill="#999999" points="174.5,14 174.5,12 174.5,10 174.5,8 174.5,6 172.5,6 172.5,8 170.5,8 170.5,10 168.5,10 168.5,12 168.5,14 166.5,14 166.5,16 166.5,18 166.5,20 168.5,20 168.5,18 168.5,16.499 170.5,16.499 172.5,16.499 172.5,18 172.5,20 174.5,20 174.5,18 174.5,16.499 176.5,16.499 176.5,14"/></g><g><rect x="166" y="18" fill="#1D1D1F" width="2" height="2"/><rect x="166" y="14" fill="#4C4C51" width="2" height="2"/><rect x="170" y="14" fill="#663526" width="2" height="2"/><rect x="170" y="12" fill="#593325" width="2" height="2"/><rect x="170" y="10" fill="#593325" width="2" height="2"/><rect x="168" y="14" fill="#876436" width="2" height="2"/><rect x="168" y="12" fill="#77531F" width="2" height="2"/><rect x="168" y="10" fill="#77531F" width="2" height="2"/><rect x="172" y="8" fill="#F2E6CE" width="2" height="2"/><rect x="172" y="6" fill="#283740" width="2" height="2"/><rect x="170" y="8" fill="#663526" width="2" height="2"/><rect x="172" y="18" fill="#1D1D1F" width="2" height="2"/><rect x="166" y="16" fill="#F2E6CE" width="2" height="2"/><rect x="172" y="16" fill="#F2E6CE" width="2" height="2"/><rect x="176" y="14" fill="#F2E6CE" width="2" height="2"/><rect x="178" y="16" fill="#66625D" width="2" height="2"/><rect x="172" y="14" fill="#4C4C51" width="2" height="2"/><rect x="174" y="14" fill="#4C4C51" width="2" height="2"/><rect x="172" y="12" fill="#4C4C51" width="2" height="2"/><rect x="172" y="10" fill="#633618" width="2" height="2"/></g><g opacity="0.4"><polygon fill="#999999" points="216.5,14 216.5,16 216.5,18.5 218.5,18.5 218.5,16 218.5,14"/><polygon fill="#999999" points="214.5,12 214.5,10 214.5,8 214.5,6 214.5,4 214.5,2 212.5,2 212.5,4 210.5,4 210.5,6 208.5,6 208.5,8 208.5,10 206.5,10 206.5,12 206.5,14 206.5,16 206.5,18 206.5,20 208.5,20 208.5,18 208.5,16 208.5,14 208.5,12.5 210.5,12.5 212.5,12.5 212.5,14 212.5,16 212.5,18 212.5,20 214.5,20 214.5,18 214.5,16 214.5,14.505 216.5,14.505 216.5,12"/></g><g><rect x="206" y="18" fill="#1D1D1F" width="2" height="2"/><rect x="206" y="12" fill="#876436" width="2" height="2"/><rect x="206" y="10" fill="#4C4C51" width="2" height="2"/><rect x="210" y="10" fill="#663526" width="2" height="2"/><rect x="210" y="8" fill="#593325" width="2" height="2"/><rect x="210" y="6" fill="#593325" width="2" height="2"/><rect x="208" y="10" fill="#876436" width="2" height="2"/><rect x="208" y="8" fill="#77531F" width="2" height="2"/><rect x="208" y="6" fill="#77531F" width="2" height="2"/><rect x="212" y="4" fill="#F2E6CE" width="2" height="2"/><rect x="212" y="2" fill="#283740" width="2" height="2"/><rect x="210" y="4" fill="#663526" width="2" height="2"/><rect x="212" y="18" fill="#1D1D1F" width="2" height="2"/><rect x="206" y="16" fill="#F2E6CE" width="2" height="2"/><rect x="212" y="16" fill="#F2E6CE" width="2" height="2"/><rect x="206" y="14" fill="#876436" width="2" height="2"/><rect x="212" y="14" fill="#876436" width="2" height="2"/><rect x="212" y="12" fill="#876436" width="2" height="2"/><rect x="212" y="10" fill="#4C4C51" width="2" height="2"/><rect x="212" y="8" fill="#4C4C51" width="2" height="2"/><rect x="212" y="6" fill="#633618" width="2" height="2"/><rect x="216" y="14" fill="#F2E6CE" width="2" height="2"/><rect x="216" y="16" fill="#66625D" width="2" height="2"/><rect x="214" y="12" fill="#4C4C51" width="2" height="2"/></g><polygon opacity="0.4" fill="#999999" enable-background="new" points="234.5,8 234.5,6 232.5,6 232.5,4 232.5,2 232.5,0 230.5,0 230.5,2 230.5,4 228.5,4 228.5,6 226.5,6 226.5,8 226.5,10 226.5,12 226.5,14 226.5,16 226.5,18 226.5,20 228.5,20 228.5,18 228.5,16 228.5,14 228.5,12.508 230.5,12.508 232.5,12.508 232.5,14 232.5,16 232.5,18 232.5,20 234.5,20 234.5,18 234.5,16 234.5,14.5 236.5,14.5 236.5,12 236.5,10 236.5,8 "/><g><rect x="226" y="18" fill="#1D1D1F" width="2" height="2"/><rect x="226" y="12" fill="#876436" width="2" height="2"/><rect x="226" y="10" fill="#4C4C51" width="2" height="2"/><rect x="226" y="8" fill="#4C4C51" width="2" height="2"/><rect x="226" y="6" fill="#633618" width="2" height="2"/><rect x="230" y="10" fill="#663526" width="2" height="2"/><rect x="230" y="8" fill="#593325" width="2" height="2"/><rect x="230" y="6" fill="#593325" width="2" height="2"/><rect x="228" y="10" fill="#876436" width="2" height="2"/><rect x="228" y="8" fill="#77531F" width="2" height="2"/><rect x="228" y="6" fill="#77531F" width="2" height="2"/><rect x="228" y="4" fill="#593325" width="2" height="2"/><rect x="230" y="2" fill="#F2E6CE" width="2" height="2"/><rect x="230" fill="#283740" width="2" height="2"/><rect x="230" y="4" fill="#663526" width="2" height="2"/><rect x="232" y="18" fill="#1D1D1F" width="2" height="2"/><rect x="226" y="16" fill="#F2E6CE" width="2" height="2"/><rect x="232" y="16" fill="#F2E6CE" width="2" height="2"/><rect x="226" y="14" fill="#876436" width="2" height="2"/><rect x="232" y="14" fill="#876436" width="2" height="2"/><rect x="232" y="12" fill="#876436" width="2" height="2"/><rect x="232" y="10" fill="#4C4C51" width="2" height="2"/><rect x="232" y="8" fill="#4C4C51" width="2" height="2"/><rect x="232" y="6" fill="#633618" width="2" height="2"/><rect x="234" y="10" fill="#F2E6CE" width="2" height="2"/><rect x="234" y="12" fill="#66625D" width="2" height="2"/><rect x="234" y="8" fill="#4C4C51" width="2" height="2"/></g><g><polygon opacity="0.4" fill="#999999" enable-background="new" points="252.5,6 252.5,4 252.5,2 252.5,0 250.5,0 250.5,2 250.5,4 248.5,4 248.5,6 246.5,6 246.5,8 246.5,10 246.5,12 246.5,14 246.5,16 246.5,18 246.5,20 248.5,20 248.5,18 248.5,16 248.5,14 248.5,12.494 250.5,12.494 252.5,12.494 252.5,14 252.5,16 252.5,18 252.5,20 254.5,20 254.5,18 254.5,16 254.5,14 254.5,12 254.5,10 254.5,8 254.5,6"/><g><rect x="246" y="18" fill="#1D1D1F" width="2" height="2"/><rect x="246" y="12" fill="#876436" width="2" height="2"/><rect x="246" y="10" fill="#4C4C51" width="2" height="2"/><rect x="246" y="8" fill="#4C4C51" width="2" height="2"/><rect x="246" y="6" fill="#633618" width="2" height="2"/><rect x="250" y="10" fill="#663526" width="2" height="2"/><rect x="250" y="8" fill="#593325" width="2" height="2"/><rect x="250" y="6" fill="#593325" width="2" height="2"/><rect x="248" y="10" fill="#876436" width="2" height="2"/><rect x="248" y="8" fill="#77531F" width="2" height="2"/><rect x="248" y="6" fill="#77531F" width="2" height="2"/><rect x="248" y="4" fill="#593325" width="2" height="2"/><rect x="250" y="2" fill="#F2E6CE" width="2" height="2"/><rect x="250" fill="#283740" width="2" height="2"/><rect x="250" y="4" fill="#663526" width="2" height="2"/><rect x="252" y="18" fill="#1D1D1F" width="2" height="2"/><rect x="246" y="16" fill="#F2E6CE" width="2" height="2"/><rect x="252" y="16" fill="#F2E6CE" width="2" height="2"/><rect x="246" y="14" fill="#876436" width="2" height="2"/><rect x="252" y="14" fill="#876436" width="2" height="2"/><rect x="252" y="12" fill="#876436" width="2" height="2"/><rect x="252" y="10" fill="#4C4C51" width="2" height="2"/><rect x="252" y="8" fill="#4C4C51" width="2" height="2"/><rect x="252" y="6" fill="#633618" width="2" height="2"/></g></g><g><polygon opacity="0.4" fill="#999999" enable-background="new" points="272.5,6 272.5,4 272.5,2 272.5,0 270.5,0 270.5,2 270.5,4 268.5,4 268.5,6 266.5,6 266.5,8 266.5,10 266.5,12 266.5,14 266.5,16 266.5,18 266.5,20 268.5,20 268.5,18 268.5,16 268.5,14 268.5,12.494 270.5,12.494 272.5,12.494 272.5,14 272.5,16 272.5,18 272.5,20 274.5,20 274.5,18 274.5,16 274.5,14 274.5,12 274.5,10 274.5,8 274.5,6"/><g><rect x="266" y="18" fill="#1D1D1F" width="2" height="2"/><rect x="266" y="12" fill="#876436" width="2" height="2"/><rect x="266" y="10" fill="#4C4C51" width="2" height="2"/><rect x="266" y="8" fill="#4C4C51" width="2" height="2"/><rect x="266" y="6" fill="#633618" width="2" height="2"/><rect x="270" y="10" fill="#663526" width="2" height="2"/><rect x="270" y="8" fill="#593325" width="2" height="2"/><rect x="270" y="6" fill="#593325" width="2" height="2"/><rect x="268" y="10" fill="#876436" width="2" height="2"/><rect x="268" y="8" fill="#77531F" width="2" height="2"/><rect x="268" y="6" fill="#77531F" width="2" height="2"/><rect x="268" y="4" fill="#593325" width="2" height="2"/><rect x="270" y="2" fill="#F2E6CE" width="2" height="2"/><rect x="270" fill="#283740" width="2" height="2"/><rect x="270" y="4" fill="#663526" width="2" height="2"/><rect x="272" y="18" fill="#1D1D1F" width="2" height="2"/><rect x="266" y="16" fill="#F2E6CE" width="2" height="2"/><rect x="272" y="16" fill="#F2E6CE" width="2" height="2"/><rect x="266" y="14" fill="#876436" width="2" height="2"/><rect x="272" y="14" fill="#876436" width="2" height="2"/><rect x="272" y="12" fill="#876436" width="2" height="2"/><rect x="272" y="10" fill="#4C4C51" width="2" height="2"/><rect x="272" y="8" fill="#4C4C51" width="2" height="2"/><rect x="272" y="6" fill="#633618" width="2" height="2"/></g></g><g><polygon opacity="0.4" fill="#999999" enable-background="new" points="292.5,6 292.5,4 292.5,2 292.5,0 290.5,0 290.5,2 290.5,4 288.5,4 288.5,6 286.5,6 286.5,8 286.5,10 286.5,12 286.5,14 286.5,16 286.5,18 286.5,20 288.5,20 288.5,18 288.5,16 288.5,14 288.5,12.494 290.5,12.494 292.5,12.494 292.5,14 292.5,16 292.5,18 292.5,20 294.5,20 294.5,18 294.5,16 294.5,14 294.5,12 294.5,10 294.5,8 294.5,6"/><g><rect x="286" y="18" fill="#1D1D1F" width="2" height="2"/><rect x="286" y="12" fill="#876436" width="2" height="2"/><rect x="286" y="10" fill="#4C4C51" width="2" height="2"/><rect x="286" y="8" fill="#4C4C51" width="2" height="2"/><rect x="286" y="6" fill="#633618" width="2" height="2"/><rect x="290" y="10" fill="#663526" width="2" height="2"/><rect x="290" y="8" fill="#593325" width="2" height="2"/><rect x="290" y="6" fill="#593325" width="2" height="2"/><rect x="288" y="10" fill="#876436" width="2" height="2"/><rect x="288" y="8" fill="#77531F" width="2" height="2"/><rect x="288" y="6" fill="#77531F" width="2" height="2"/><rect x="288" y="4" fill="#593325" width="2" height="2"/><rect x="290" y="2" fill="#F2E6CE" width="2" height="2"/><rect x="290" fill="#283740" width="2" height="2"/><rect x="290" y="4" fill="#663526" width="2" height="2"/><rect x="292" y="18" fill="#1D1D1F" width="2" height="2"/><rect x="286" y="16" fill="#F2E6CE" width="2" height="2"/><rect x="292" y="16" fill="#F2E6CE" width="2" height="2"/><rect x="286" y="14" fill="#876436" width="2" height="2"/><rect x="292" y="14" fill="#876436" width="2" height="2"/><rect x="292" y="12" fill="#876436" width="2" height="2"/><rect x="292" y="10" fill="#4C4C51" width="2" height="2"/><rect x="292" y="8" fill="#4C4C51" width="2" height="2"/><rect x="292" y="6" fill="#633618" width="2" height="2"/></g></g><g><polygon opacity="0.4" fill="#999999" enable-background="new" points="312.5,6 312.5,4 312.5,2 312.5,0 310.5,0 310.5,2 310.5,4 308.5,4 308.5,6 306.5,6 306.5,8 306.5,10 306.5,12 306.5,14 306.5,16 306.5,18 306.5,20 308.5,20 308.5,18 308.5,16 308.5,14 308.5,12.494 310.5,12.494 312.5,12.494 312.5,14 312.5,16 312.5,18 312.5,20 314.5,20 314.5,18 314.5,16 314.5,14 314.5,12 314.5,10 314.5,8 314.5,6"/><g><rect x="306" y="18" fill="#1D1D1F" width="2" height="2"/><rect x="306" y="12" fill="#876436" width="2" height="2"/><rect x="306" y="10" fill="#4C4C51" width="2" height="2"/><rect x="306" y="8" fill="#4C4C51" width="2" height="2"/><rect x="306" y="6" fill="#633618" width="2" height="2"/><rect x="310" y="10" fill="#663526" width="2" height="2"/><rect x="310" y="8" fill="#593325" width="2" height="2"/><rect x="310" y="6" fill="#593325" width="2" height="2"/><rect x="308" y="10" fill="#876436" width="2" height="2"/><rect x="308" y="8" fill="#77531F" width="2" height="2"/><rect x="308" y="6" fill="#77531F" width="2" height="2"/><rect x="308" y="4" fill="#593325" width="2" height="2"/><rect x="310" y="2" fill="#F2E6CE" width="2" height="2"/><rect x="310" fill="#283740" width="2" height="2"/><rect x="310" y="4" fill="#663526" width="2" height="2"/><rect x="312" y="18" fill="#1D1D1F" width="2" height="2"/><rect x="306" y="16" fill="#F2E6CE" width="2" height="2"/><rect x="312" y="16" fill="#F2E6CE" width="2" height="2"/><rect x="306" y="14" fill="#876436" width="2" height="2"/><rect x="312" y="14" fill="#876436" width="2" height="2"/><rect x="312" y="12" fill="#876436" width="2" height="2"/><rect x="312" y="10" fill="#4C4C51" width="2" height="2"/><rect x="312" y="8" fill="#4C4C51" width="2" height="2"/><rect x="312" y="6" fill="#633618" width="2" height="2"/></g></g></svg>