<?xml version="1.0" standalone="no"?>
<!DOCTYPE svg PUBLIC "-//W3C//DTD SVG 1.1//EN" "http://www.w3.org/Graphics/SVG/1.1/DTD/svg11.dtd" >
<svg xmlns="http://www.w3.org/2000/svg">
<metadata>
This is a custom SVG webfont generated by Font Squirrel.
Copyright   :  2002 2007 2008 Adobe Systems Incorporated All rights reserved
Designer    : Craig Kroeger
Foundry     : Adobe Systems Incorporated
Foundry URL : httpwwwadobecomtype
</metadata>
<defs>
<font id="hooge0554Regular" horiz-adv-x="1792" >
<font-face units-per-em="2048" ascent="1638" descent="-410" />
<missing-glyph horiz-adv-x="1024" />
<glyph unicode=" "  horiz-adv-x="1024" />
<glyph unicode="&#x09;" horiz-adv-x="1024" />
<glyph unicode="&#xa0;" horiz-adv-x="1024" />
<glyph unicode="!" horiz-adv-x="1024" d="M256 0v256h256v-256h-256zM256 512v768h256v-768h-256z" />
<glyph unicode="&#x22;" horiz-adv-x="1280" d="M0 768v512h256v-512h-256zM512 768v512h256v-512h-256z" />
<glyph unicode="#" d="M0 256v256h256v256h-256v256h256v256h256v-256h256v256h256v-256h256v-256h-256v-256h256v-256h-256v-256h-256v256h-256v-256h-256v256h-256zM512 512h256v256h-256v-256z" />
<glyph unicode="$" d="M0 0v256h1024v256h-1024v768h512v256h256v-256h512v-256h-1024v-256h1024v-768h-512v-256h-256v256h-512z" />
<glyph unicode="%" d="M0 0v256h252l4 4v252h252l4 4v252h252l4 4v252h252l4 4v252h256v-256h-252l-4 -4v-252h-252l-4 -4v-252h-252l-4 -4v-252h-252l-4 -4v-252h-256zM0 1024v256h256v-256h-256zM1024 0v256h256v-256h-256z" />
<glyph unicode="&#x26;" horiz-adv-x="2048" d="M0 0v768h256v512h1024v-764l4 -4h252v-256h-252l-4 -4v-252h-1280zM256 256h1020l4 4v248l-4 4h-1020v-256zM512 768h512v256h-512v-256z" />
<glyph unicode="'" horiz-adv-x="768" d="M0 768v512h256v-512h-256z" />
<glyph unicode="(" horiz-adv-x="1024" d="M0 0v1280h252l4 4v252h256v-256h-252l-4 -4v-1272l4 -4h252v-256h-256v252l-4 4h-252z" />
<glyph unicode=")" horiz-adv-x="1024" d="M0 0h252l4 4v1272l-4 4h-252v256h256v-252l4 -4h252v-1280h-252l-4 -4v-252h-256v256z" />
<glyph unicode="*" d="M0 512v256h512v252l-4 4h-252v256h256v-252l4 -4h248l4 4v252h256v-256h-252l-4 -4v-252h512v-256h-512v-252l4 -4h252v-256h-256v252l-4 4h-248l-4 -4v-252h-256v256h252l4 4v252h-512z" />
<glyph unicode="+" d="M0 512v256h512v512h256v-512h512v-256h-512v-512h-256v512h-512z" />
<glyph unicode="," horiz-adv-x="1024" d="M0 -256h252l4 4v508h256v-512h-252l-4 -4v-252h-256v256z" />
<glyph unicode="-" horiz-adv-x="1280" d="M0 512v256h768v-256h-768z" />
<glyph unicode="." horiz-adv-x="768" d="M0 0v256h256v-256h-256z" />
<glyph unicode="/" d="M0 0v256h252l4 4v252h252l4 4v252h252l4 4v252h252l4 4v252h256v-256h-252l-4 -4v-252h-252l-4 -4v-252h-252l-4 -4v-252h-252l-4 -4v-252h-256z" />
<glyph unicode="0" d="M0 0v1280h1280v-1280h-1280zM256 256h768v768h-768v-768z" />
<glyph unicode="1" horiz-adv-x="1024" d="M0 1024v256h512v-1280h-256v1024h-256z" />
<glyph unicode="2" d="M0 0v768h1024v256h-1024v256h1280v-768h-1024v-256h1024v-256h-1280z" />
<glyph unicode="3" d="M0 0v256h1024v256h-768v256h768v256h-1024v256h1280v-1280h-1280z" />
<glyph unicode="4" d="M0 512v768h256v-512h768v512h256v-1280h-256v512h-1024z" />
<glyph unicode="5" d="M0 0v256h1024v256h-1024v768h1280v-256h-1024v-256h1024v-768h-1280z" />
<glyph unicode="6" d="M0 0v1280h1280v-256h-1024v-256h1024v-768h-1280zM256 256h768v256h-768v-256z" />
<glyph unicode="7" horiz-adv-x="1536" d="M0 1024v256h1024v-1280h-256v1024h-768z" />
<glyph unicode="8" d="M0 0v1280h1280v-1280h-1280zM256 256h768v256h-768v-256zM256 768h768v256h-768v-256z" />
<glyph unicode="9" d="M0 0v256h1024v256h-1024v768h1280v-1280h-1280zM256 768h768v256h-768v-256z" />
<glyph unicode=":" horiz-adv-x="1280" d="M256 256v256h256v-256h-256zM256 768v256h256v-256h-256z" />
<glyph unicode=";" horiz-adv-x="1280" d="M0 -256h252l4 4v508h256v-512h-252l-4 -4v-252h-256v256zM256 768v256h256v-256h-256z" />
<glyph unicode="&#x3c;" horiz-adv-x="1280" d="M0 512v256h252l4 4v252h252l4 4v252h256v-256h-252l-4 -4v-252h-252l-4 -4v-248l4 -4h252v-252l4 -4h252v-256h-256v252l-4 4h-252v252l-4 4h-252z" />
<glyph unicode="=" d="M0 256v256h1280v-256h-1280zM0 768v256h1280v-256h-1280z" />
<glyph unicode="&#x3e;" horiz-adv-x="1280" d="M0 0v256h252l4 4v252h252l4 4v248l-4 4h-252v252l-4 4h-252v256h256v-252l4 -4h252v-252l4 -4h252v-256h-252l-4 -4v-252h-252l-4 -4v-252h-256z" />
<glyph unicode="?" horiz-adv-x="1536" d="M0 1024v256h1024v-768h-768v256h512v256h-768zM256 0v256h256v-256h-256z" />
<glyph unicode="@" d="M0 0v1280h1280v-768h-768v256h512v256h-768v-768h1024v-256h-1280z" />
<glyph unicode="A" d="M0 0v1280h1280v-1280h-256v512h-768v-512h-256zM256 768h768v256h-768v-256z" />
<glyph unicode="B" d="M0 0v1280h1280v-512h-252l-4 -4v-248l4 -4h252v-512h-1280zM256 256h768v252l-4 4h-764v-256zM256 768h764l4 4v252h-768v-256z" />
<glyph unicode="C" d="M0 0v1280h1280v-256h-1024v-768h1024v-256h-1280z" />
<glyph unicode="D" d="M0 0v1280h1024v-252l4 -4h252v-768h-252l-4 -4v-252h-1024zM256 256h764l4 4v760l-4 4h-764v-768z" />
<glyph unicode="E" d="M0 0v1280h1280v-256h-1024v-256h768v-256h-768v-256h1024v-256h-1280z" />
<glyph unicode="F" d="M0 0v1280h1280v-256h-1024v-256h768v-256h-768v-512h-256z" />
<glyph unicode="G" d="M0 0v1280h1280v-256h-1024v-768h768v256h-512v256h768v-768h-1280z" />
<glyph unicode="H" d="M0 0v1280h256v-512h768v512h256v-1280h-256v512h-768v-512h-256z" />
<glyph unicode="I" horiz-adv-x="768" d="M0 0v1280h256v-1280h-256z" />
<glyph unicode="J" horiz-adv-x="1536" d="M0 0v256h768v1024h256v-1280h-1024z" />
<glyph unicode="K" d="M0 0v1280h256v-512h764l4 -4v-248l-4 -4h-764v-512h-256zM1024 0v508l4 4h252v-512h-256zM1024 772v508h256v-512h-252z" />
<glyph unicode="L" horiz-adv-x="1536" d="M0 0v1280h256v-1024h768v-256h-1024z" />
<glyph unicode="M" horiz-adv-x="2304" d="M0 0v1280h1792v-1280h-256v1024h-512v-1024h-256v1024h-512v-1024h-256z" />
<glyph unicode="N" d="M0 0v1280h1280v-1280h-256v1024h-768v-1024h-256z" />
<glyph unicode="O" d="M0 0v1280h1280v-1280h-1280zM256 256h768v768h-768v-768z" />
<glyph unicode="P" d="M0 0v1280h1280v-768h-1024v-512h-256zM256 768h768v256h-768v-256z" />
<glyph unicode="Q" d="M0 0v1280h1280v-1280h-512v-256h-256v256h-512zM256 256h768v768h-768v-768z" />
<glyph unicode="R" d="M0 0v1280h1280v-512h-252l-4 -4v-248l4 -4h252v-512h-256v508l-4 4h-764v-512h-256zM256 768h764l4 4v252h-768v-256z" />
<glyph unicode="S" d="M0 0v256h1024v256h-1024v768h1280v-256h-1024v-256h1024v-768h-1280z" />
<glyph unicode="T" d="M0 1024v256h1280v-256h-512v-1024h-256v1024h-512z" />
<glyph unicode="U" d="M0 0v1280h256v-1024h768v1024h256v-1280h-1280z" />
<glyph unicode="V" d="M0 256v1024h256v-1020l-4 -4h-252zM256 0v252l4 4h760l4 -4v-252h-768zM1024 260v1020h256v-1024h-252z" />
<glyph unicode="W" horiz-adv-x="2304" d="M0 0v1280h256v-1024h512v1024h256v-1024h512v1024h256v-1280h-1792z" />
<glyph unicode="X" d="M0 0v512h252l4 4v248l-4 4h-252v512h256v-508l4 -4h760l4 4v508h256v-512h-252l-4 -4v-248l4 -4h252v-512h-256v508l-4 4h-760l-4 -4v-508h-256z" />
<glyph unicode="Y" d="M0 512v768h256v-512h768v512h256v-768h-512v-512h-256v512h-512z" />
<glyph unicode="Z" d="M0 0v512h252l4 4v252h764l4 4v252h-1024v256h1280v-512h-252l-4 -4v-252h-764l-4 -4v-252h1024v-256h-1280z" />
<glyph unicode="[" horiz-adv-x="1024" d="M0 -256v1792h512v-256h-256v-1280h256v-256h-512z" />
<glyph unicode="\" d="M0 1024v256h256v-252l4 -4h252v-252l4 -4h252v-252l4 -4h252v-252l4 -4h252v-256h-256v252l-4 4h-252v252l-4 4h-252v252l-4 4h-252v252l-4 4h-252z" />
<glyph unicode="]" horiz-adv-x="1024" d="M0 0h256v1280h-256v256h512v-1792h-512v256z" />
<glyph unicode="^" horiz-adv-x="1280" d="M0 768v256h252l4 4v252h256v-252l4 -4h252v-256h-256v252l-4 4h-248l-4 -4v-252h-256z" />
<glyph unicode="_" d="M0 0h1280v-256h-1280v256z" />
<glyph unicode="`" horiz-adv-x="1024" d="M0 1024v256h256v-252l4 -4h252v-256h-256v252l-4 4h-252z" />
<glyph unicode="a" horiz-adv-x="1536" d="M0 0v768h252l4 4v252h768v-1024h-1024zM256 256h512v512h-508l-4 -4v-508z" />
<glyph unicode="b" horiz-adv-x="1536" d="M0 0v1280h256v-256h768v-1024h-1024zM256 256h512v512h-512v-512z" />
<glyph unicode="c" horiz-adv-x="1536" d="M0 0v1024h1024v-256h-768v-512h768v-256h-1024z" />
<glyph unicode="d" horiz-adv-x="1536" d="M0 0v1024h768v256h256v-1280h-1024zM256 256h512v512h-512v-512z" />
<glyph unicode="e" horiz-adv-x="1536" d="M0 0v1024h1024v-512h-252l-4 -4v-252h256v-256h-1024zM256 256h256v256h252l4 4v252h-512v-512z" />
<glyph unicode="f" horiz-adv-x="1024" d="M0 0v1280h512v-256h-256v-256h256v-256h-256v-512h-256z" />
<glyph unicode="g" horiz-adv-x="1536" d="M0 0v1024h1024v-1536h-1024v256h768v256h-768zM256 256h512v512h-512v-512z" />
<glyph unicode="h" horiz-adv-x="1536" d="M0 0v1280h256v-256h768v-1024h-256v768h-512v-768h-256z" />
<glyph unicode="i" horiz-adv-x="768" d="M0 0v768h256v-768h-256zM0 1024v256h256v-256h-256z" />
<glyph unicode="j" horiz-adv-x="1024" d="M0 -256h256v1024h256v-1280h-512v256zM256 1024v256h256v-256h-256z" />
<glyph unicode="k" horiz-adv-x="1536" d="M0 0v1280h256v-512h508l4 4v252h256v-256h-252l-4 -4v-248l4 -4h252v-512h-256v508l-4 4h-508v-512h-256z" />
<glyph unicode="l" horiz-adv-x="768" d="M0 0v1280h256v-1280h-256z" />
<glyph unicode="m" horiz-adv-x="2304" d="M0 0v1024h1792v-1024h-256v768h-512v-768h-256v768h-512v-768h-256z" />
<glyph unicode="n" horiz-adv-x="1536" d="M0 0v1024h1024v-1024h-256v768h-512v-768h-256z" />
<glyph unicode="o" horiz-adv-x="1536" d="M0 0v1024h1024v-1024h-1024zM256 256h512v512h-512v-512z" />
<glyph unicode="p" horiz-adv-x="1536" d="M0 -512v1536h1024v-1024h-768v-512h-256zM256 256h512v512h-512v-512z" />
<glyph unicode="q" horiz-adv-x="1536" d="M0 0v1024h1024v-1536h-256v512h-768zM256 256h512v512h-512v-512z" />
<glyph unicode="r" horiz-adv-x="1280" d="M0 0v1024h768v-256h-512v-768h-256z" />
<glyph unicode="s" horiz-adv-x="1536" d="M0 0v256h512v252l-4 4h-508v256h256v256h768v-256h-512v-252l4 -4h508v-256h-256v-256h-768z" />
<glyph unicode="t" horiz-adv-x="1280" d="M0 768v256h256v256h256v-256h256v-256h-256v-768h-256v768h-256z" />
<glyph unicode="u" horiz-adv-x="1536" d="M0 0v1024h256v-768h512v768h256v-1024h-1024z" />
<glyph unicode="v" horiz-adv-x="1536" d="M0 256v768h256v-764l4 -4h504l4 4v764h256v-768h-252l-4 -4v-252h-512v252l-4 4h-252z" />
<glyph unicode="w" horiz-adv-x="2304" d="M0 0v1024h256v-768h512v768h256v-768h512v768h256v-1024h-1792z" />
<glyph unicode="x" horiz-adv-x="1536" d="M0 0v256h252l4 4v504l-4 4h-252v256h256v-252l4 -4h504l4 4v252h256v-256h-252l-4 -4v-504l4 -4h252v-256h-256v252l-4 4h-504l-4 -4v-252h-256z" />
<glyph unicode="y" horiz-adv-x="1536" d="M0 0v1024h256v-768h512v768h256v-1536h-1024v256h768v256h-768z" />
<glyph unicode="z" horiz-adv-x="1536" d="M0 0v256h256v256h252l4 4v252h-512v256h1024v-256h-256v-256h-252l-4 -4v-252h512v-256h-1024z" />
<glyph unicode="{" horiz-adv-x="1280" d="M0 512v256h252l4 4v508h252l4 4v252h256v-256h-252l-4 -4v-508h-252l-4 -4v-248l4 -4h252v-508l4 -4h252v-256h-256v252l-4 4h-252v508l-4 4h-252z" />
<glyph unicode="|" horiz-adv-x="1280" d="M256 -256v1792h256v-1792h-256z" />
<glyph unicode="}" horiz-adv-x="1280" d="M0 0h252l4 4v508h252l4 4v248l-4 4h-252v508l-4 4h-252v256h256v-252l4 -4h252v-508l4 -4h252v-256h-252l-4 -4v-508h-252l-4 -4v-252h-256v256z" />
<glyph unicode="~" horiz-adv-x="1536" d="M0 512v256h252l4 4v252h256v-252l4 -4h248l4 4v252h256v-256h-252l-4 -4v-252h-256v252l-4 4h-248l-4 -4v-252h-256z" />
<glyph unicode="&#xa1;" horiz-adv-x="1024" d="M0 0v768h256v-768h-256zM0 1024v256h256v-256h-256z" />
<glyph unicode="&#xa2;" d="M0 0v1024h512v256h256v-256h512v-256h-1024v-512h1024v-256h-512v-256h-256v256h-512z" />
<glyph unicode="&#xa3;" d="M0 0v256h256v256h-256v256h256v768h768v-512h-256v256h-256v-512h256v-256h-256v-256h512v256h256v-512h-1280z" />
<glyph unicode="&#xa4;" horiz-adv-x="2048" d="M0 512v256h256v512h1280v-256h-1024v-256h768v-256h-768v-256h1024v-256h-1280v512h-256z" />
<glyph unicode="&#xa5;" d="M0 768v512h256v-256h768v256h256v-512h-512v-256h256v-256h-256v-256h-256v256h-256v256h256v256h-512z" />
<glyph unicode="&#xa6;" horiz-adv-x="768" d="M0 0v512h256v-512h-256zM0 768v512h256v-512h-256z" />
<glyph unicode="&#xa7;" horiz-adv-x="1280" d="M0 0v1280h768v-256h-512v-256h512v-1280h-768v256h512v256h-512zM256 256h256v256h-256v-256z" />
<glyph unicode="&#xa8;" horiz-adv-x="1536" d="M256 1024v256h256v-256h-256zM768 1024v256h256v-256h-256z" />
<glyph unicode="&#xa9;" d="M0 0v1280h1280v-1280h-1280zM256 256h768v256h-512v256h512v256h-768v-768z" />
<glyph unicode="&#xaa;" horiz-adv-x="1280" d="M0 0v256h768v-256h-768zM0 512v512h252l4 4v252h512v-768h-768zM256 768h256v256h-252l-4 -4v-252z" />
<glyph unicode="&#xab;" d="M0 512v256h252l4 4v252h256v-256h-252l-4 -4v-248l4 -4h252v-256h-256v252l-4 4h-252zM768 512v256h252l4 4v252h256v-256h-252l-4 -4v-248l4 -4h252v-256h-256v252l-4 4h-252z" />
<glyph unicode="&#xac;" d="M0 512v256h1280v-768h-256v512h-1024z" />
<glyph unicode="&#xad;" horiz-adv-x="1536" d="M0 512v256h1024v-256h-1024z" />
<glyph unicode="&#xae;" d="M0 0v1280h1280v-1280h-1280zM256 256h256v512h512v256h-768v-768z" />
<glyph unicode="&#xaf;" horiz-adv-x="1280" d="M0 1024v256h768v-256h-768z" />
<glyph unicode="&#xb0;" horiz-adv-x="1280" d="M0 512v768h768v-768h-768zM256 768h256v256h-256v-256z" />
<glyph unicode="&#xb1;" d="M0 0h512v512h-512v256h512v512h256v-512h512v-256h-512v-512h512v-256h-1280v256z" />
<glyph unicode="&#xb2;" horiz-adv-x="1280" d="M0 256v256h256v256h252l4 4v248l-4 4h-508v256h512v-252l4 -4h252v-256h-252l-4 -4v-252h256v-256h-768z" />
<glyph unicode="&#xb3;" horiz-adv-x="1280" d="M0 256v256h508l4 4v252h-256v256h-256v256h512v-256h256v-512h-252l-4 -4v-252h-512z" />
<glyph unicode="&#xb4;" horiz-adv-x="1024" d="M0 768v256h252l4 4v252h256v-256h-252l-4 -4v-252h-256z" />
<glyph unicode="&#xb5;" d="M0 -512v1536h256v-768h508l4 4v764h256v-764l4 -4h252v-256h-256v252l-4 4h-248l-4 -4v-252h-512v-512h-256z" />
<glyph unicode="&#xb6;" d="M0 512v768h1280v-1280h-256v512h-256v-512h-256v512h-512zM256 768h256v256h-256v-256zM768 768h256v256h-256v-256z" />
<glyph unicode="&#xb7;" horiz-adv-x="768" d="M0 512v256h256v-256h-256z" />
<glyph unicode="&#xb8;" horiz-adv-x="1024" d="M0 -256h252l4 4v252h256v-256h-252l-4 -4v-252h-256v256z" />
<glyph unicode="&#xb9;" horiz-adv-x="768" d="M0 256v1024h256v-1024h-256z" />
<glyph unicode="&#xba;" horiz-adv-x="1280" d="M0 0v256h768v-256h-768zM0 512v768h768v-768h-768zM256 768h256v256h-256v-256z" />
<glyph unicode="&#xbb;" d="M0 256v256h252l4 4v248l-4 4h-252v256h256v-252l4 -4h252v-256h-252l-4 -4v-252h-256zM768 256v256h252l4 4v248l-4 4h-252v256h256v-252l4 -4h252v-256h-252l-4 -4v-252h-256z" />
<glyph unicode="&#xbc;" horiz-adv-x="2304" d="M0 0v256h252l4 4v248l-4 4h-252v768h256v-764l4 -4h248l4 4v252h252l4 4v252h252l4 4v252h256v-256h-252l-4 -4v-248l4 -4h252v-256h256v256h256v-768h-256v256h-512v508l-4 4h-248l-4 -4v-252h-252l-4 -4v-252h-252l-4 -4v-252h-256z" />
<glyph unicode="&#xbd;" horiz-adv-x="2304" d="M0 0v256h252l4 4v248l-4 4h-252v768h256v-764l4 -4h248l4 4v252h252l4 4v252h256v256h256v-256h256v-252l4 -4h252v-256h-252l-4 -4v-252h256v-256h-768v256h256v256h252l4 4v248l-4 4h-760l-4 -4v-252h-252l-4 -4v-252h-252l-4 -4v-252h-256z" />
<glyph unicode="&#xbe;" horiz-adv-x="2560" d="M0 256v256h512v256h-256v256h-256v256h512v-256h256v-256h252l4 4v252h252l4 4v252h256v-256h-252l-4 -4v-248l4 -4h252v-256h256v256h256v-768h-256v256h-512v508l-4 4h-248l-4 -4v-252h-256v-256h-256v-256h-256v256h-256z" />
<glyph unicode="&#xbf;" horiz-adv-x="1536" d="M0 0v768h768v-256h-512v-256h768v-256h-1024zM512 1024v256h256v-256h-256z" />
<glyph unicode="&#xc0;" d="M0 0v1280h1280v-1280h-256v512h-768v-512h-256zM256 768h768v256h-768v-256zM256 1792v256h256v-252l4 -4h252v-256h-256v252l-4 4h-252z" />
<glyph unicode="&#xc1;" d="M0 0v1280h1280v-1280h-256v512h-768v-512h-256zM256 768h768v256h-768v-256zM512 1536v256h252l4 4v252h256v-256h-252l-4 -4v-252h-256z" />
<glyph unicode="&#xc2;" d="M0 0v1280h1280v-1280h-256v512h-768v-512h-256zM256 768h768v256h-768v-256zM256 1536v256h252l4 4v252h256v-252l4 -4h252v-256h-256v252l-4 4h-248l-4 -4v-252h-256z" />
<glyph unicode="&#xc3;" d="M0 0v1280h1280v-1280h-256v512h-768v-512h-256zM256 768h768v256h-768v-256zM256 1536v256h252l4 4v252h256v-252l4 -4h248l4 4v252h256v-256h-252l-4 -4v-252h-256v252l-4 4h-248l-4 -4v-252h-256z" />
<glyph unicode="&#xc4;" d="M0 0v1280h1280v-1280h-256v512h-768v-512h-256zM256 768h768v256h-768v-256zM256 1536v256h256v-256h-256zM768 1536v256h256v-256h-256z" />
<glyph unicode="&#xc5;" d="M0 0v1280h512v252l-4 4h-252v256h252l4 4v252h256v-252l4 -4h252v-256h-252l-4 -4v-252h512v-1280h-256v512h-768v-512h-256zM256 768h768v256h-768v-256zM512 1540l4 -4h248l4 4v248l-4 4h-248l-4 -4v-248z" />
<glyph unicode="&#xc6;" horiz-adv-x="2816" d="M0 0v1280h2304v-256h-1024v-256h768v-256h-768v-256h1024v-256h-1280v512h-768v-512h-256zM256 768h768v256h-768v-256z" />
<glyph unicode="&#xc7;" d="M0 0v1280h1280v-256h-1024v-768h1024v-256h-512v-512h-512v256h256v256h-512z" />
<glyph unicode="&#xc8;" d="M0 0v1280h1280v-256h-1024v-256h768v-256h-768v-256h1024v-256h-1280zM256 1792v256h256v-252l4 -4h252v-256h-256v252l-4 4h-252z" />
<glyph unicode="&#xc9;" d="M0 0v1280h1280v-256h-1024v-256h768v-256h-768v-256h1024v-256h-1280zM512 1536v256h252l4 4v252h256v-256h-252l-4 -4v-252h-256z" />
<glyph unicode="&#xca;" d="M0 0v1280h1280v-256h-1024v-256h768v-256h-768v-256h1024v-256h-1280zM256 1536v256h252l4 4v252h256v-252l4 -4h252v-256h-256v252l-4 4h-248l-4 -4v-252h-256z" />
<glyph unicode="&#xcb;" d="M0 0v1280h1280v-256h-1024v-256h768v-256h-768v-256h1024v-256h-1280zM256 1536v256h256v-256h-256zM768 1536v256h256v-256h-256z" />
<glyph unicode="&#xcc;" horiz-adv-x="768" d="M-256 1792v256h256v-252l4 -4h252v-256h-256v252l-4 4h-252zM0 0v1280h256v-1280h-256z" />
<glyph unicode="&#xcd;" horiz-adv-x="768" d="M0 0v1280h256v-1280h-256zM0 1536v256h252l4 4v252h256v-256h-252l-4 -4v-252h-256z" />
<glyph unicode="&#xce;" horiz-adv-x="768" d="M-256 1536v256h252l4 4v252h256v-252l4 -4h252v-256h-256v252l-4 4h-248l-4 -4v-252h-256zM0 0v1280h256v-1280h-256z" />
<glyph unicode="&#xcf;" horiz-adv-x="768" d="M-256 1536v256h256v-256h-256zM0 0v1280h256v-1280h-256zM256 1536v256h256v-256h-256z" />
<glyph unicode="&#xd0;" horiz-adv-x="2048" d="M0 512v256h256v512h1024v-252l4 -4h252v-768h-252l-4 -4v-252h-1024v512h-256zM512 256h764l4 4v760l-4 4h-764v-256h256v-256h-256v-256z" />
<glyph unicode="&#xd1;" d="M0 0v1280h1280v-1280h-256v1024h-768v-1024h-256zM256 1536v256h252l4 4v252h256v-252l4 -4h248l4 4v252h256v-256h-252l-4 -4v-252h-256v252l-4 4h-248l-4 -4v-252h-256z" />
<glyph unicode="&#xd2;" d="M0 0v1280h1280v-1280h-1280zM256 256h768v768h-768v-768zM256 1792v256h256v-252l4 -4h252v-256h-256v252l-4 4h-252z" />
<glyph unicode="&#xd3;" d="M0 0v1280h1280v-1280h-1280zM256 256h768v768h-768v-768zM512 1536v256h252l4 4v252h256v-256h-252l-4 -4v-252h-256z" />
<glyph unicode="&#xd4;" d="M0 0v1280h1280v-1280h-1280zM256 256h768v768h-768v-768zM256 1536v256h252l4 4v252h256v-252l4 -4h252v-256h-256v252l-4 4h-248l-4 -4v-252h-256z" />
<glyph unicode="&#xd5;" d="M0 0v1280h1280v-1280h-1280zM256 256h768v768h-768v-768zM256 1536v256h252l4 4v252h256v-252l4 -4h248l4 4v252h256v-256h-252l-4 -4v-252h-256v252l-4 4h-248l-4 -4v-252h-256z" />
<glyph unicode="&#xd6;" d="M0 0v1280h1280v-1280h-1280zM256 256h768v768h-768v-768zM256 1536v256h256v-256h-256zM768 1536v256h256v-256h-256z" />
<glyph unicode="&#xd7;" horiz-adv-x="1536" d="M0 0v256h252l4 4v504l-4 4h-252v256h256v-252l4 -4h504l4 4v252h256v-256h-252l-4 -4v-504l4 -4h252v-256h-256v252l-4 4h-504l-4 -4v-252h-256z" />
<glyph unicode="&#xd8;" d="M0 0v1280h1280v-1280h-1280zM256 512h252l4 4v252h252l4 4v252h-512v-512zM512 256h512v512h-252l-4 -4v-252h-252l-4 -4v-252z" />
<glyph unicode="&#xd9;" d="M0 0v1280h256v-1024h768v1024h256v-1280h-1280zM256 1792v256h256v-252l4 -4h252v-256h-256v252l-4 4h-252z" />
<glyph unicode="&#xda;" d="M0 0v1280h256v-1024h768v1024h256v-1280h-1280zM512 1536v256h252l4 4v252h256v-256h-252l-4 -4v-252h-256z" />
<glyph unicode="&#xdb;" d="M0 0v1280h256v-1024h768v1024h256v-1280h-1280zM256 1536v256h252l4 4v252h256v-252l4 -4h252v-256h-256v252l-4 4h-248l-4 -4v-252h-256z" />
<glyph unicode="&#xdc;" d="M0 0v1280h256v-1024h768v1024h256v-1280h-1280zM256 1536v256h256v-256h-256zM768 1536v256h256v-256h-256z" />
<glyph unicode="&#xdd;" d="M0 512v768h256v-512h768v512h256v-768h-512v-512h-256v512h-512zM512 1536v256h252l4 4v252h256v-256h-252l-4 -4v-252h-256z" />
<glyph unicode="&#xde;" horiz-adv-x="1536" d="M0 0v1280h256v-256h768v-768h-768v-256h-256zM256 512h512v256h-512v-256z" />
<glyph unicode="&#xdf;" horiz-adv-x="1536" d="M0 0v1280h1024v-512h-252l-4 -4v-248l4 -4h252v-512h-512v256h256v252l-4 4h-252v256h252l4 4v252h-512v-1024h-256z" />
<glyph unicode="&#xe0;" horiz-adv-x="1536" d="M0 0v768h252l4 4v252h768v-1024h-1024zM256 256h512v512h-508l-4 -4v-508zM256 1536v256h256v-252l4 -4h252v-256h-256v252l-4 4h-252z" />
<glyph unicode="&#xe1;" horiz-adv-x="1536" d="M0 0v768h252l4 4v252h768v-1024h-1024zM256 256h512v512h-508l-4 -4v-508zM256 1280v256h252l4 4v252h256v-256h-252l-4 -4v-252h-256z" />
<glyph unicode="&#xe2;" horiz-adv-x="1536" d="M0 0v768h252l4 4v252h768v-1024h-1024zM0 1280v256h252l4 4v252h512v-252l4 -4h252v-256h-256v252l-4 4h-504l-4 -4v-252h-256zM256 256h512v512h-508l-4 -4v-508z" />
<glyph unicode="&#xe3;" horiz-adv-x="1536" d="M0 0v768h252l4 4v252h768v-1024h-1024zM0 1280v256h252l4 4v252h256v-252l4 -4h248l4 4v252h256v-256h-252l-4 -4v-252h-256v252l-4 4h-248l-4 -4v-252h-256zM256 256h512v512h-508l-4 -4v-508z" />
<glyph unicode="&#xe4;" horiz-adv-x="1536" d="M0 0v768h252l4 4v252h768v-1024h-1024zM0 1280v256h256v-256h-256zM256 256h512v512h-508l-4 -4v-508zM768 1280v256h256v-256h-256z" />
<glyph unicode="&#xe5;" horiz-adv-x="1536" d="M0 0v768h252l4 4v248l-4 4h-252v256h252l4 4v252h512v-252l4 -4h252v-256h-252l-4 -4v-248l4 -4h252v-768h-1024zM256 256h512v508l-4 4h-504l-4 -4v-508zM256 1028l4 -4h504l4 4v248l-4 4h-504l-4 -4v-248z" />
<glyph unicode="&#xe6;" horiz-adv-x="2304" d="M0 0v768h252l4 4v252h1536v-512h-252l-4 -4v-252h256v-256h-1792zM256 256h512v512h-508l-4 -4v-508zM1024 256h256v256h252l4 4v252h-512v-512z" />
<glyph unicode="&#xe7;" horiz-adv-x="1536" d="M0 0v1024h1024v-256h-768v-512h768v-256h-256v-512h-512v256h256v256h-512z" />
<glyph unicode="&#xe8;" horiz-adv-x="1536" d="M0 0v1024h1024v-512h-252l-4 -4v-252h256v-256h-1024zM256 256h256v256h252l4 4v252h-512v-512zM256 1536v256h256v-252l4 -4h252v-256h-256v252l-4 4h-252z" />
<glyph unicode="&#xe9;" horiz-adv-x="1536" d="M0 0v1024h1024v-512h-252l-4 -4v-252h256v-256h-1024zM256 256h256v256h252l4 4v252h-512v-512zM256 1280v256h252l4 4v252h256v-256h-252l-4 -4v-252h-256z" />
<glyph unicode="&#xea;" horiz-adv-x="1536" d="M0 0v1024h1024v-512h-252l-4 -4v-252h256v-256h-1024zM0 1280v256h252l4 4v252h512v-252l4 -4h252v-256h-256v252l-4 4h-504l-4 -4v-252h-256zM256 256h256v256h252l4 4v252h-512v-512z" />
<glyph unicode="&#xeb;" horiz-adv-x="1536" d="M0 0v1024h1024v-512h-252l-4 -4v-252h256v-256h-1024zM0 1280v256h256v-256h-256zM256 256h256v256h252l4 4v252h-512v-512zM768 1280v256h256v-256h-256z" />
<glyph unicode="&#xec;" horiz-adv-x="768" d="M-256 1280v256h256v-252l4 -4h252v-256h-256v252l-4 4h-252zM0 0v768h256v-768h-256z" />
<glyph unicode="&#xed;" horiz-adv-x="768" d="M0 0v768h256v-768h-256zM0 1024v256h252l4 4v252h256v-256h-252l-4 -4v-252h-256z" />
<glyph unicode="&#xee;" horiz-adv-x="768" d="M-256 1024v256h252l4 4v252h256v-252l4 -4h252v-256h-256v252l-4 4h-248l-4 -4v-252h-256zM0 0v768h256v-768h-256z" />
<glyph unicode="&#xef;" horiz-adv-x="768" d="M-256 1024v256h256v-256h-256zM0 0v768h256v-768h-256zM256 1024v256h256v-256h-256z" />
<glyph unicode="&#xf0;" horiz-adv-x="1536" d="M0 0v768h512v256h-256v256h768v-256h-256v-256h256v-768h-1024zM256 256h512v256h-512v-256z" />
<glyph unicode="&#xf1;" horiz-adv-x="1536" d="M0 0v1024h1024v-1024h-256v768h-512v-768h-256zM0 1280v256h252l4 4v252h256v-252l4 -4h248l4 4v252h256v-256h-252l-4 -4v-252h-256v252l-4 4h-248l-4 -4v-252h-256z" />
<glyph unicode="&#xf2;" horiz-adv-x="1536" d="M0 0v1024h1024v-1024h-1024zM256 256h512v512h-512v-512zM256 1536v256h256v-252l4 -4h252v-256h-256v252l-4 4h-252z" />
<glyph unicode="&#xf3;" horiz-adv-x="1536" d="M0 0v1024h1024v-1024h-1024zM256 256h512v512h-512v-512zM256 1280v256h252l4 4v252h256v-256h-252l-4 -4v-252h-256z" />
<glyph unicode="&#xf4;" horiz-adv-x="1536" d="M0 0v1024h1024v-1024h-1024zM0 1280v256h252l4 4v252h512v-252l4 -4h252v-256h-256v252l-4 4h-504l-4 -4v-252h-256zM256 256h512v512h-512v-512z" />
<glyph unicode="&#xf5;" horiz-adv-x="1536" d="M0 0v1024h1024v-1024h-1024zM0 1280v256h252l4 4v252h256v-252l4 -4h248l4 4v252h256v-256h-252l-4 -4v-252h-256v252l-4 4h-248l-4 -4v-252h-256zM256 256h512v512h-512v-512z" />
<glyph unicode="&#xf6;" horiz-adv-x="1536" d="M0 0v1024h1024v-1024h-1024zM0 1280v256h256v-256h-256zM256 256h512v512h-512v-512zM768 1280v256h256v-256h-256z" />
<glyph unicode="&#xf7;" d="M0 512v256h1280v-256h-1280zM512 0v256h256v-256h-256zM512 1024v256h256v-256h-256z" />
<glyph unicode="&#xf8;" horiz-adv-x="1536" d="M0 0v1024h1024v-1024h-1024zM256 512h252l4 -4v-252h256v256h-252l-4 4v252h-256v-256z" />
<glyph unicode="&#xf9;" horiz-adv-x="1536" d="M0 0v1024h256v-768h512v768h256v-1024h-1024zM256 1536v256h256v-252l4 -4h252v-256h-256v252l-4 4h-252z" />
<glyph unicode="&#xfa;" horiz-adv-x="1536" d="M0 0v1024h256v-768h512v768h256v-1024h-1024zM256 1280v256h252l4 4v252h256v-256h-252l-4 -4v-252h-256z" />
<glyph unicode="&#xfb;" horiz-adv-x="1536" d="M0 0v1024h256v-768h512v768h256v-1024h-1024zM0 1280v256h252l4 4v252h512v-252l4 -4h252v-256h-256v252l-4 4h-504l-4 -4v-252h-256z" />
<glyph unicode="&#xfc;" horiz-adv-x="1536" d="M0 0v1024h256v-768h512v768h256v-1024h-1024zM0 1280v256h256v-256h-256zM768 1280v256h256v-256h-256z" />
<glyph unicode="&#xfd;" horiz-adv-x="1536" d="M0 0v1024h256v-768h512v768h256v-1536h-1024v256h768v256h-768zM256 1280v256h252l4 4v252h256v-256h-252l-4 -4v-252h-256z" />
<glyph unicode="&#xfe;" horiz-adv-x="1536" d="M0 -512v1792h256v-512h768v-768h-768v-512h-256zM256 256h512v256h-512v-256z" />
<glyph unicode="&#xff;" horiz-adv-x="1536" d="M0 0v1024h256v-768h512v768h256v-1536h-1024v256h768v256h-768zM0 1280v256h256v-256h-256zM768 1280v256h256v-256h-256z" />
<glyph unicode="&#x152;" horiz-adv-x="2816" d="M0 0v1280h2304v-256h-1024v-256h768v-256h-768v-256h1024v-256h-2304zM256 256h768v768h-768v-768z" />
<glyph unicode="&#x153;" horiz-adv-x="2304" d="M0 0v1024h1792v-512h-252l-4 -4v-252h256v-256h-1792zM256 256h512v512h-512v-512zM1024 256h256v256h252l4 4v252h-512v-512z" />
<glyph unicode="&#x178;" d="M0 512v768h256v-512h768v512h256v-768h-512v-512h-256v512h-512zM256 1536v256h256v-256h-256zM768 1536v256h256v-256h-256z" />
<glyph unicode="&#x2c6;" horiz-adv-x="1280" d="M0 768v256h252l4 4v252h256v-252l4 -4h252v-256h-256v252l-4 4h-248l-4 -4v-252h-256z" />
<glyph unicode="&#x2dc;" horiz-adv-x="1536" d="M0 512v256h252l4 4v252h256v-252l4 -4h248l4 4v252h256v-256h-252l-4 -4v-252h-256v252l-4 4h-248l-4 -4v-252h-256z" />
<glyph unicode="&#x2000;" horiz-adv-x="1024" />
<glyph unicode="&#x2001;" horiz-adv-x="2048" />
<glyph unicode="&#x2002;" horiz-adv-x="1024" />
<glyph unicode="&#x2003;" horiz-adv-x="2048" />
<glyph unicode="&#x2004;" horiz-adv-x="681" />
<glyph unicode="&#x2005;" horiz-adv-x="512" />
<glyph unicode="&#x2006;" horiz-adv-x="339" />
<glyph unicode="&#x2007;" horiz-adv-x="339" />
<glyph unicode="&#x2008;" horiz-adv-x="256" />
<glyph unicode="&#x2009;" horiz-adv-x="409" />
<glyph unicode="&#x200a;" horiz-adv-x="112" />
<glyph unicode="&#x2010;" horiz-adv-x="1280" d="M0 512v256h768v-256h-768z" />
<glyph unicode="&#x2011;" horiz-adv-x="1280" d="M0 512v256h768v-256h-768z" />
<glyph unicode="&#x2012;" horiz-adv-x="1280" d="M0 512v256h768v-256h-768z" />
<glyph unicode="&#x2013;" horiz-adv-x="1280" d="M0 512v256h768v-256h-768z" />
<glyph unicode="&#x2014;" horiz-adv-x="1536" d="M0 512v256h1024v-256h-1024z" />
<glyph unicode="&#x2018;" horiz-adv-x="768" d="M0 768v512h256v-512h-256z" />
<glyph unicode="&#x2019;" horiz-adv-x="768" d="M0 768v512h256v-512h-256z" />
<glyph unicode="&#x201a;" horiz-adv-x="768" d="M-256 -256h252l4 4v508h256v-512h-252l-4 -4v-252h-256v256z" />
<glyph unicode="&#x201c;" horiz-adv-x="1280" d="M0 768v512h256v-512h-256zM512 768v512h256v-512h-256z" />
<glyph unicode="&#x201d;" horiz-adv-x="1280" d="M0 768v512h256v-512h-256zM512 768v512h256v-512h-256z" />
<glyph unicode="&#x201e;" horiz-adv-x="1280" d="M-256 -256h252l4 4v508h256v-508l4 -4h248l4 4v508h256v-512h-252l-4 -4v-252h-256v252l-4 4h-248l-4 -4v-252h-256v256z" />
<glyph unicode="&#x2022;" horiz-adv-x="768" d="M0 512v256h256v-256h-256z" />
<glyph unicode="&#x2026;" d="M0 0v256h256v-256h-256zM512 0v256h256v-256h-256zM1024 0v256h256v-256h-256z" />
<glyph unicode="&#x202f;" horiz-adv-x="409" />
<glyph unicode="&#x2039;" horiz-adv-x="1024" d="M0 512v256h252l4 4v252h256v-256h-252l-4 -4v-248l4 -4h252v-256h-256v252l-4 4h-252z" />
<glyph unicode="&#x203a;" horiz-adv-x="1024" d="M0 256v256h252l4 4v248l-4 4h-252v256h256v-252l4 -4h252v-256h-252l-4 -4v-252h-256z" />
<glyph unicode="&#x205f;" horiz-adv-x="512" />
<glyph unicode="&#x2122;" horiz-adv-x="2560" d="M0 1024v256h2048v-768h-256v512h-256v-512h-256v512h-256v-512h-256v512h-256v-512h-256v512h-256z" />
<glyph unicode="&#xe000;" horiz-adv-x="1025" d="M0 1025h1025v-1025h-1025v1025z" />
<glyph unicode="&#xfb01;" horiz-adv-x="1536" d="M0 0v1280h1024v-256h-768v-256h768v-768h-256v512h-512v-512h-256z" />
<glyph unicode="&#xfb02;" horiz-adv-x="1536" d="M0 0v1280h1024v-1280h-256v512h-512v-512h-256zM256 768h512v256h-512v-256z" />
<glyph unicode="&#xfb03;" horiz-adv-x="2816" d="M2048 0v768h256v-768h-256zM2048 1024v256h256v-256h-256zM1024 0v1280h512v-256h-256v-256h256v-256h-256v-512h-256zM0 0v1280h512v-256h-256v-256h256v-256h-256v-512h-256z" />
<glyph unicode="&#xfb04;" horiz-adv-x="2816" d="M2048 0v1280h256v-1280h-256zM1024 0v1280h512v-256h-256v-256h256v-256h-256v-512h-256zM0 0v1280h512v-256h-256v-256h256v-256h-256v-512h-256z" />
</font>
</defs>
</svg>
