<svg xmlns="http://www.w3.org/2000/svg" width="52px" height="6px"><polygon fill="#6D553B" points="50,0 48,0 46,0 44,0 42,0 40,0 38,0 36,0 34,0 32,0 30,0 28,0 26,0 24,0 22,0 20,0 18,0 16,0 14,0 12,0 10,0 8,0 6,0 4,0 2,0 0,0 0,2 2,2 4,2 6,2 8,2 10,2 12,2 14,2 16,2 18,2 20,2 22,2 24,2 26,2 28,2 30,2 32,2 34,2 36,2 38,2 40,2 42,2 44,2 46,2 48,2 50,2 52,2 52,0 "/><rect x="8" y="2" fill="#82817A" width="4" height="4"/><rect x="36" y="2" fill="#82817A" width="4" height="4"/><rect x="48" y="2" fill="#82817A" width="4" height="4"/></svg>