<svg xmlns="http://www.w3.org/2000/svg" width="141px" height="101px" viewBox="0 68 141 101"><g><path opacity="0.4" fill="#999999" d="M93,81h-4h-4h-4h-4h-4h-4h-4h-4h-4h-4h-4h-4h-4h-4h-4h-4h-4h-4h-4v-4h-4v-4H9v-4H5v4H1v4h4v4 h4v4v4h4v4h4v4h4h4v4h4v4h4h4v4h4v4h4h4h4v4h4v4h4v4v4h4h4v4h4v4v4v4v4v4v4v4v4v4h4v-4v-4v-4v-4v-4v-4v-4v-4v-4h4v-4h4h4v-4v-4h4 v-4h4h4v-4h4h4h4v-4h4h4h4h4h4h4v-4h-4h-4h-4h-4v-4h4v-4h4v-4v-4h4v-4v-4H93z"/><g><rect x="8" y="72" fill="#93928A" width="4" height="4"/><rect x="24" y="84" fill="#AFA594" width="4" height="4"/><rect x="28" y="84" fill="#AFA594" width="4" height="4"/><rect x="32" y="84" fill="#AFA594" width="4" height="4"/><rect x="36" y="84" fill="#7C563D" width="4" height="4"/><rect x="12" y="84" fill="#7C653D" width="4" height="4"/><rect x="16" y="84" fill="#7C653D" width="4" height="4"/><rect x="20" y="84" fill="#7C653D" width="4" height="4"/><rect x="40" y="84" fill="#7C563D" width="4" height="4"/><rect x="48" y="84" fill="#7C563D" width="4" height="4"/><rect x="52" y="84" fill="#7C563D" width="4" height="4"/><rect x="56" y="84" fill="#7C563D" width="4" height="4"/><rect x="60" y="84" fill="#7C563D" width="4" height="4"/><rect x="64" y="84" fill="#7C563D" width="4" height="4"/><rect x="68" y="84" fill="#7C563D" width="4" height="4"/><rect x="72" y="84" fill="#7C563D" width="4" height="4"/><rect x="76" y="84" fill="#7C563D" width="4" height="4"/><rect x="80" y="84" fill="#7C563D" width="4" height="4"/><rect x="92" y="84" fill="#7C563D" width="4" height="4"/><rect x="96" y="84" fill="#7C563D" width="4" height="4"/><rect x="100" y="84" fill="#7C563D" width="4" height="4"/><rect x="104" y="84" fill="#7C563D" width="4" height="4"/><rect x="108" y="84" fill="#7C563D" width="4" height="4"/><rect x="112" y="84" fill="#AFA594" width="4" height="4"/><rect x="120" y="84" fill="#7C653D" width="4" height="4"/><rect x="124" y="84" fill="#82817A" width="4" height="4"/><rect x="128" y="84" fill="#7C653D" width="4" height="4"/><rect x="24" y="88" fill="#7C563D" width="4" height="4"/><rect x="28" y="88" fill="#7C563D" width="4" height="4"/><rect x="32" y="88" fill="#7C653D" width="4" height="4"/><rect x="36" y="88" fill="#7C653D" width="4" height="4"/><rect x="40" y="88" fill="#7C653D" width="4" height="4"/><rect x="48" y="88" fill="#7C653D" width="4" height="4"/><rect x="52" y="88" fill="#7C653D" width="4" height="4"/><rect x="56" y="88" fill="#7C653D" width="4" height="4"/><rect x="60" y="88" fill="#AFA594" width="4" height="4"/><rect x="64" y="88" fill="#AFA594" width="4" height="4"/><rect x="68" y="88" fill="#71715D" width="4" height="4"/><rect x="72" y="88" fill="#71715D" width="4" height="4"/><rect x="76" y="88" fill="#71715D" width="4" height="4"/><rect x="80" y="88" fill="#71715D" width="4" height="4"/><rect x="92" y="88" fill="#AFA594" width="4" height="4"/><rect x="96" y="88" fill="#AFA594" width="4" height="4"/><rect x="100" y="88" fill="#7C653D" width="4" height="4"/><rect x="104" y="88" fill="#7C653D" width="4" height="4"/><rect x="108" y="88" fill="#7C653D" width="4" height="4"/><rect x="112" y="88" fill="#7C653D" width="4" height="4"/><rect x="28" y="92" fill="#71715D" width="4" height="4"/><rect x="32" y="92" fill="#71715D" width="4" height="4"/><rect x="36" y="92" fill="#71715D" width="4" height="4"/><rect x="40" y="92" fill="#71715D" width="4" height="4"/><rect x="48" y="92" fill="#7C563D" width="4" height="4"/><rect x="52" y="92" fill="#7C563D" width="4" height="4"/><rect x="56" y="92" fill="#7C563D" width="4" height="4"/><rect x="60" y="92" fill="#7C563D" width="4" height="4"/><rect x="64" y="92" fill="#7C563D" width="4" height="4"/><rect x="68" y="92" fill="#7C563D" width="4" height="4"/><rect x="72" y="92" fill="#7C563D" width="4" height="4"/><rect x="76" y="92" fill="#AFA594" width="4" height="4"/><rect x="80" y="92" fill="#7C563D" width="4" height="4"/><rect x="92" y="92" fill="#7C563D" width="4" height="4"/><rect x="96" y="92" fill="#7C563D" width="4" height="4"/><rect x="100" y="92" fill="#7C563D" width="4" height="4"/><rect x="104" y="92" fill="#7C563D" width="4" height="4"/><rect x="108" y="92" fill="#7C563D" width="4" height="4"/><rect x="112" y="92" fill="#AFA594" width="4" height="4"/><rect x="116" y="92" fill="#AFA594" width="4" height="4"/><rect x="40" y="96" fill="#7C653D" width="4" height="4"/><rect x="48" y="96" fill="#7C653D" width="4" height="4"/><rect x="52" y="96" fill="#7C653D" width="4" height="4"/><rect x="56" y="96" fill="#7C653D" width="4" height="4"/><rect x="60" y="96" fill="#7C653D" width="4" height="4"/><rect x="64" y="96" fill="#7C653D" width="4" height="4"/><rect x="68" y="96" fill="#7C653D" width="4" height="4"/><rect x="72" y="96" fill="#7C653D" width="4" height="4"/><rect x="76" y="96" fill="#71715D" width="4" height="4"/><rect x="80" y="96" fill="#71715D" width="4" height="4"/><rect x="92" y="96" fill="#71715D" width="4" height="4"/><rect x="96" y="96" fill="#AFA594" width="4" height="4"/><rect x="100" y="96" fill="#AFA594" width="4" height="4"/><rect x="104" y="96" fill="#7C653D" width="4" height="4"/><rect x="108" y="96" fill="#7C653D" width="4" height="4"/><rect x="112" y="96" fill="#7C653D" width="4" height="4"/><rect x="116" y="96" fill="#7C653D" width="4" height="4"/><rect x="120" y="96" fill="#82817A" width="4" height="4"/><rect x="28" y="100" fill="#7C653D" width="4" height="4"/><rect x="32" y="100" fill="#7C653D" width="4" height="4"/><rect x="36" y="100" fill="#71715D" width="4" height="4"/><rect x="40" y="100" fill="#71715D" width="4" height="4"/><rect x="48" y="100" fill="#71715D" width="4" height="4"/><rect x="52" y="100" fill="#71715D" width="4" height="4"/><rect x="56" y="100" fill="#7C563D" width="4" height="4"/><rect x="60" y="100" fill="#7C563D" width="4" height="4"/><rect x="64" y="100" fill="#7C563D" width="4" height="4"/><rect x="68" y="100" fill="#7C563D" width="4" height="4"/><rect x="72" y="100" fill="#7C563D" width="4" height="4"/><rect x="76" y="100" fill="#7C563D" width="4" height="4"/><rect x="80" y="100" fill="#7C563D" width="4" height="4"/><rect x="92" y="100" fill="#7C563D" width="4" height="4"/><rect x="96" y="100" fill="#7C563D" width="4" height="4"/><rect x="100" y="100" fill="#71715D" width="4" height="4"/><rect x="104" y="100" fill="#71715D" width="4" height="4"/><rect x="108" y="100" fill="#71715D" width="4" height="4"/><rect x="112" y="100" fill="#71715D" width="4" height="4"/><rect x="116" y="100" fill="#82817A" width="4" height="4"/><polygon fill="#AFA594" points="60,104 56,104 52,104 52,108 56,108 60,108 64,108 64,104"/><rect x="112" y="104" fill="#82817A" width="4" height="4"/><rect x="116" y="104" fill="#82817A" width="4" height="4"/><polygon fill="#71715D" points="68,108 64,108 60,108 56,108 56,112 60,112 64,112 68,112 72,112 72,108"/><polygon fill="#AFA594" points="76,108 72,108 72,112 76,112 80,112 80,108"/><polygon fill="#7C563D" points="72,112 68,112 64,112 60,112 56,112 52,112 52,116 56,116 60,116 64,116 68,116 72,116 76,116 76,112"/><rect x="60" y="120" fill="#6D6C66" width="4" height="4"/><polygon fill="#7C563D" points="80,120 76,120 72,120 68,120 64,120 64,124 68,124 72,124 76,124 80,124 84,124 84,120"/><rect x="72" y="164" fill="#82817A" width="4" height="4"/><polygon fill="#82817A" points="12,76 8,76 8,72 8,68 4,68 4,72 0,72 0,76 4,76 4,80 8,80 8,84 8,88 12,88 12,84 12,80 16,80 16,76"/><polygon fill="#AFA594" points="32,84 28,84 24,84 24,88 28,88 32,88 36,88 36,84"/><polygon fill="#7C653D" points="16,84 12,84 12,88 16,88 20,88 20,84"/><rect x="20" y="84" fill="#936850" width="4" height="4"/><rect x="112" y="84" fill="#AFA594" width="4" height="4"/><polygon fill="#7C653D" points="120,84 116,84 116,88 120,88 124,88 124,84"/><rect x="124" y="84" fill="#936850" width="4" height="4"/><polygon fill="#7C563D" points="28,88 24,88 20,88 16,88 12,88 12,92 16,92 20,92 24,92 28,92 32,92 32,88"/><rect x="56" y="88" fill="#936850" width="4" height="4"/><polygon fill="#AFA594" points="64,88 60,88 60,92 64,92 68,92 68,88"/><polygon fill="#71715D" points="80,88 76,88 72,88 68,88 68,92 72,92 76,92 80,92 84,92 84,88"/><polygon fill="#7C653D" points="112,88 108,88 104,88 100,88 100,92 104,92 108,92 112,92 116,92 116,88"/><polygon fill="#7C563D" points="124,88 120,88 116,88 116,92 120,92 124,92 128,92 128,88"/><polygon fill="#AFA594" points="24,92 20,92 16,92 16,96 20,96 24,96 28,96 28,92"/><polygon fill="#71715D" points="40,92 36,92 32,92 28,92 28,96 32,96 36,96 40,96 44,96 44,92"/><rect x="76" y="92" fill="#AFA594" width="4" height="4"/><polygon fill="#AFA594" points="116,92 112,92 112,96 116,96 120,96 120,92"/><polygon fill="#7C653D" points="124,92 120,92 120,96 124,96 128,96 128,92"/><polygon fill="#7C563D" points="36,96 32,96 28,96 24,96 24,100 28,100 32,100 36,100 40,100 40,96"/><polygon fill="#AFA594" points="100,96 96,96 96,100 100,100 104,100 104,96"/><rect x="104" y="96" fill="#936850" width="4" height="4"/><polygon fill="#7C653D" points="116,96 112,96 108,96 108,100 112,100 116,100 120,100 120,96"/><rect x="120" y="96" fill="#82817A" width="4" height="4"/><polygon fill="#7C653D" points="32,100 28,100 28,104 32,104 36,104 36,100"/><polygon fill="#936850" points="40,100 36,100 36,104 40,104 44,104 44,100"/><polygon fill="#71715D" points="112,100 108,100 104,100 100,100 100,104 104,104 108,104 112,104 116,104 116,100"/><rect x="108" y="108" fill="#82817A" width="4" height="4"/><polygon fill="#82817A" points="116,100 116,104 112,104 112,108 116,108 120,108 120,104 120,100"/><rect x="44" y="84" fill="#7C563D" width="4" height="4"/><rect x="44" y="88" fill="#7C653D" width="4" height="4"/><rect x="44" y="92" fill="#7C563D" width="4" height="4"/><rect x="44" y="96" fill="#7C653D" width="4" height="4"/><rect x="44" y="100" fill="#71715D" width="4" height="4"/><polygon fill="#7C563D" points="48,104 44,104 40,104 36,104 36,108 40,108 44,108 48,108 52,108 52,104"/><polygon fill="#7C653D" points="52,108 48,108 44,108 40,108 40,112 44,112 48,112 52,112 56,112 56,108"/><polygon fill="#7C653D" points="52,88 48,88 44,88 40,88 36,88 32,88 32,92 36,92 40,92 44,92 48,92 52,92 56,92 56,88"/><polygon fill="#7C563D" points="72,92 68,92 64,92 60,92 56,92 52,92 48,92 44,92 44,96 48,96 52,96 56,96 60,96 64,96 68,96 72,96 76,96 76,92"/><polygon fill="#7C653D" points="72,96 68,96 64,96 60,96 56,96 52,96 48,96 44,96 40,96 40,100 44,100 48,100 52,100 56,100 60,100 64,100 68,100 72,100 76,100 76,96"/><polygon fill="#71715D" points="52,100 48,100 44,100 44,104 48,104 52,104 56,104 56,100"/><rect x="84" y="84" fill="#7C563D" width="4" height="4"/><rect x="84" y="88" fill="#AFA594" width="4" height="4"/><rect x="84" y="92" fill="#7C563D" width="4" height="4"/><rect x="84" y="96" fill="#71715D" width="4" height="4"/><rect x="84" y="100" fill="#7C563D" width="4" height="4"/><polygon fill="#936850" points="84,108 80,108 80,112 84,112 88,112 88,108"/><rect x="84" y="120" fill="#6D6C66" width="4" height="4"/><polygon fill="#93928A" points="128,80 124,80 120,80 116,80 112,80 108,80 104,80 100,80 96,80 92,80 88,80 84,80 80,80 76,80 72,80 68,80 64,80 60,80 56,80 52,80 48,80 44,80 40,80 36,80 32,80 28,80 24,80 20,80 16,80 12,80 12,84 16,84 20,84 24,84 28,84 32,84 36,84 40,84 44,84 48,84 52,84 56,84 60,84 64,84 68,84 72,84 76,84 80,84 84,84 88,84 92,84 96,84 100,84 104,84 108,84 112,84 116,84 120,84 124,84 128,84 132,84 132,80"/><rect x="88" y="84" fill="#7C563D" width="4" height="4"/><rect x="88" y="88" fill="#AFA594" width="4" height="4"/><rect x="88" y="92" fill="#7C563D" width="4" height="4"/><rect x="88" y="96" fill="#71715D" width="4" height="4"/><rect x="88" y="100" fill="#7C563D" width="4" height="4"/><polygon fill="#7C653D" points="108,104 104,104 100,104 96,104 92,104 88,104 84,104 80,104 76,104 72,104 68,104 64,104 64,108 68,108 72,108 76,108 80,108 84,108 88,108 92,108 96,108 100,108 104,108 108,108 112,108 112,104"/><polygon fill="#7C563D" points="104,108 100,108 96,108 92,108 88,108 88,112 92,112 96,112 100,112 104,112 108,112 108,108"/><polygon fill="#AFA594" points="96,112 92,112 88,112 84,112 80,112 76,112 76,116 80,116 84,116 88,116 92,116 96,116 100,116 100,112"/><polygon fill="#7C653D" points="88,116 84,116 80,116 76,116 72,116 68,116 64,116 60,116 56,116 56,120 60,120 64,120 68,120 72,120 76,120 80,120 84,120 88,120 92,120 92,116"/><polygon fill="#7C563D" points="108,84 104,84 100,84 96,84 92,84 88,84 84,84 80,84 76,84 72,84 68,84 64,84 60,84 56,84 52,84 48,84 44,84 40,84 36,84 36,88 40,88 44,88 48,88 52,88 56,88 60,88 64,88 68,88 72,88 76,88 80,88 84,88 88,88 92,88 96,88 100,88 104,88 108,88 112,88 112,84"/><polygon fill="#AFA594" points="96,88 92,88 88,88 84,88 84,92 88,92 92,92 96,92 100,92 100,88"/><polygon fill="#7C563D" points="108,92 104,92 100,92 96,92 92,92 88,92 84,92 80,92 80,96 84,96 88,96 92,96 96,96 100,96 104,96 108,96 112,96 112,92"/><polygon fill="#71715D" points="92,96 88,96 84,96 80,96 76,96 76,100 80,100 84,100 88,100 92,100 96,100 96,96"/><polygon fill="#7C563D" points="96,100 92,100 88,100 84,100 80,100 76,100 72,100 68,100 64,100 60,100 56,100 56,104 60,104 64,104 68,104 72,104 76,104 80,104 84,104 88,104 92,104 96,104 100,104 100,100"/><polygon fill="#6D6C66" points="132,104 128,104 124,104 120,104 120,108 124,108 128,108 132,108 136,108 136,104"/><polygon fill="#93928A" points="64,124 60,124 60,128 64,128 68,128 68,124"/><rect x="68" y="124" fill="#6D6C66" width="4" height="4"/><rect x="72" y="124" fill="#93928A" width="4" height="4"/><rect x="76" y="124" fill="#6D6C66" width="4" height="4"/><polygon fill="#82817A" points="76,128 72,128 68,128 68,132 72,132 76,132 80,132 80,128"/><polygon fill="#6D6C66" points="72,132 72,136 72,140 72,144 72,148 72,152 72,156 72,160 72,164 76,164 76,160 76,156 76,152 76,148 76,144 76,140 76,136 76,132"/><polygon fill="#93928A" points="84,124 80,124 80,128 84,128 88,128 88,124"/></g></g></svg>