<svg xmlns="http://www.w3.org/2000/svg" width="85px" height="5px"><g><g opacity="0.4"><polygon fill="#999999" points="33,1 29,1 25,1 21,1 17,1 13,1 9,1 5,1 1,1 1,5 5,5 9,5 13,5 17,5 21,5 25,5 29,5 33,5 37,5 40,5 40,1 37,1 "/><polygon fill="#999999" points="81,1 77,1 73,1 69,1 65,1 61,1 57,1 53,1 49,1 45,1 45,5 49,5 53,5 57,5 61,5 65,5 69,5 73,5 77,5 81,5 85,5 85,1 "/></g><rect x="36" fill="#93928A" width="4" height="4"/><rect x="32" fill="#937345" width="4" height="4"/><polygon fill="#7C653D" points="28,0 24,0 20,0 16,0 16,4 20,4 24,4 28,4 32,4 32,0 "/><rect x="12" fill="#937345" width="4" height="4"/><rect x="8" fill="#93928A" width="4" height="4"/><rect x="4" fill="#7C653D" width="4" height="4"/><rect fill="#7C7E3D" width="4" height="4"/><rect x="44" fill="#93928A" width="4" height="4"/><rect x="48" fill="#937345" width="4" height="4"/><polygon fill="#7C653D" points="64,0 60,0 56,0 52,0 52,4 56,4 60,4 64,4 68,4 68,0 "/><rect x="68" fill="#937345" width="4" height="4"/><rect x="72" fill="#93928A" width="4" height="4"/><rect x="76" fill="#7C653D" width="4" height="4"/><rect x="80" fill="#AA9943" width="4" height="4"/></g></svg>