<?xml version="1.0" encoding="utf-8"?>
<!-- Generator: Adobe Illustrator 17.0.2, SVG Export Plug-In . SVG Version: 6.00 Build 0)  -->
<!DOCTYPE svg PUBLIC "-//W3C//DTD SVG 1.1//EN" "http://www.w3.org/Graphics/SVG/1.1/DTD/svg11.dtd">
<svg version="1.1" id="Layer_1" xmlns="http://www.w3.org/2000/svg" xmlns:xlink="http://www.w3.org/1999/xlink" x="0px" y="0px"
	 width="11px" height="8px" viewBox="0 0 11 8" enable-background="new 0 0 11 8" xml:space="preserve">
<polygon opacity="0.4" fill="#999999" points="9,4 9,3 7,3 7,1 5,1 5,3 3.5,3 1,3 1,5 3,5 3,5.5 3,8 5,8 5,6 6.5,6 7,6 7,8 9,8 9,6 
	11,6 11,4 "/>
<g>
	<rect x="2.5" y="2.5" fill="#FFFFFF" width="3" height="3"/>
	<rect x="5.5" y="2.5" fill="#FFFFFF" width="3" height="3"/>
	<rect x="2.5" y="5.5" fill="#EAE6D8" width="2" height="2"/>
	<rect x="0.5" y="2.5" fill="#EAE6D8" width="2" height="2"/>
	<rect x="6.5" y="5.5" fill="#EAE6D8" width="2" height="2"/>
	<rect x="4.5" y="0.5" fill="#EAE6D8" width="2" height="2"/>
	<rect x="8.5" y="3.5" fill="#EAE6D8" width="2" height="2"/>
</g>
</svg>
