<?xml version="1.0" encoding="utf-8"?>
<!-- Generator: Adobe Illustrator 17.0.2, SVG Export Plug-In . SVG Version: 6.00 Build 0)  -->
<!DOCTYPE svg PUBLIC "-//W3C//DTD SVG 1.1//EN" "http://www.w3.org/Graphics/SVG/1.1/DTD/svg11.dtd">
<svg version="1.1" id="Layer_1" xmlns="http://www.w3.org/2000/svg" xmlns:xlink="http://www.w3.org/1999/xlink" x="0px" y="0px"
	 width="45px" height="5px" viewBox="0 0 45 5" enable-background="new 0 0 45 5" xml:space="preserve">
<g opacity="0.4">
	<polygon fill="#999999" points="13,1 9,1 5,1 1,1 1,5 5,5 9,5 13,5 17,5 20,5 20,1 17,1 	"/>
	<polygon fill="#999999" points="41,1 37,1 33,1 29,1 25,1 25,5 29,5 33,5 37,5 41,5 45,5 45,1 	"/>
</g>
<rect x="16" fill="#93928A" width="4" height="4"/>
<polygon fill="#7C653D" points="12,0 8,0 4,0 4,4 8,4 12,4 16,4 16,0 "/>
<rect fill="#93928A" width="4" height="4"/>
<rect x="24" fill="#93928A" width="4" height="4"/>
<polygon fill="#7C653D" points="36,0 32,0 28,0 28,4 32,4 36,4 40,4 40,0 "/>
<rect x="40" fill="#93928A" width="4" height="4"/>
</svg>
