<svg xmlns="http://www.w3.org/2000/svg" width="49px" height="44px" viewBox="0 0 49 44"><path opacity="0.4" fill="#999999" d="M45,25h-4v4h-4v-4v-4v-4h4v-4h-4V9V5h-4V1h-4h-4v4h-4v4h-4h-4v4H9v4h24v4v4v4H9v4v4H5v4H1v3h4	h4h4h4h4h4h4h4h4h4h4v-3v-4v-4v-4h4v-4H45z M37,37v-4h4v4H37z"/><rect x="8" y="40" fill="#82817A" width="4" height="4"/><rect x="20" y="40" fill="#82817A" width="4" height="4"/><rect x="16" y="36" fill="#7C7E3D" width="4" height="4"/><rect x="20" y="36" fill="#7C7E3D" width="4" height="4"/><rect x="16" y="32" fill="#95653D" width="4" height="4"/><rect x="12" y="32" fill="#95653D" width="4" height="4"/><rect x="20" y="32" fill="#95653D" width="4" height="4"/><rect x="24" y="36" fill="#95653D" width="4" height="4"/><rect x="28" y="36" fill="#95653D" width="4" height="4"/><polygon fill="#82817A" points="32,36 32,40 32,44 36,44 36,40 36,36 "/><rect x="24" y="28" fill="#705B47" width="4" height="4"/><rect x="28" y="28" fill="#95653D" width="4" height="4"/><rect x="32" y="28" fill="#95653D" width="4" height="4"/><rect x="36" y="28" fill="#82817A" width="4" height="4"/><polygon fill="#6D6C66" points="40,28 40,32 40,36 40,40 44,40 44,36 44,32 44,28 "/><rect x="40" y="24" fill="#93928A" width="4" height="4"/><rect x="44" y="24" fill="#6D6C66" width="4" height="4"/><rect x="32" y="16" fill="#7C7E3D" width="4" height="4"/><rect x="28" y="16" fill="#95653D" width="4" height="4"/><rect x="20" y="24" opacity="0.4" fill="#705B47" width="4" height="4"/><rect x="24" y="16" fill="#7C6549" width="4" height="4"/><rect x="20" y="16" fill="#7C6549" width="4" height="4"/><rect x="16" y="16" fill="#7C6549" width="4" height="4"/><rect x="28" y="12" fill="#C7B649" width="4" height="4"/><rect x="24" y="12" fill="#93928A" width="4" height="4"/><rect x="20" y="12" fill="#C7B649" width="4" height="4"/><rect x="28" y="8" fill="#AA9943" width="4" height="4"/><rect x="24" y="8" fill="#AA9943" width="4" height="4"/><rect x="28" y="4" fill="#AA9943" width="4" height="4"/><rect x="24" y="4" fill="#C7B649" width="4" height="4"/><rect x="28" fill="#C7B649" width="4" height="4"/><rect x="24" fill="#C7B649" width="4" height="4"/><polygon fill="#93928A" points="24,40 24,44 28,44 32,44 32,40 28,40 "/><polygon fill="#93928A" points="12,40 12,44 16,44 20,44 20,40 16,40 "/><polygon fill="#93928A" points="40,40 40,36 36,36 36,40 36,44 40,44 44,44 44,40 "/><polygon fill="#93928A" points="0,40 0,44 4,44 8,44 8,40 4,40 "/><polygon fill="#7C7E3D" points="20,36 16,36 16,40 20,40 24,40 24,36 "/><polygon fill="#7C6549" points="12,36 8,36 4,36 4,40 8,40 12,40 16,40 16,36 "/><rect x="12" y="32" fill="#7C7E3D" width="4" height="4"/><polygon fill="#95653D" points="20,32 16,32 16,36 20,36 24,36 24,32 "/><polygon fill="#95653D" points="28,36 24,36 24,40 28,40 32,40 32,36 "/><rect x="8" y="32" fill="#95653D" width="4" height="4"/><polygon fill="#7C6549" points="32,32 28,32 24,32 24,36 28,36 32,36 36,36 36,32 "/><polygon fill="#95653D" points="28,28 24,28 24,32 28,32 32,32 32,28 "/><rect x="32" y="28" fill="#7C7E3D" width="4" height="4"/><polygon fill="#7C6549" points="32,24 28,24 24,24 24,28 28,28 32,28 36,28 36,24 "/><rect x="32" y="16" fill="#7C7E3D" width="4" height="4"/><rect x="28" y="16" fill="#7C6549" width="4" height="4"/><rect x="24" y="16" fill="#7C6549" width="4" height="4"/><polygon fill="#95653D" points="20,16 16,16 16,20 20,20 24,20 24,16 "/><polygon fill="#93928A" points="36,12 32,12 32,16 36,16 40,16 40,12 "/><rect x="28" y="12" fill="#C7B649" width="4" height="4"/><rect x="28" y="16" fill="#AA9943" width="4" height="4"/><rect x="24" y="12" fill="#93928A" width="4" height="4"/><polygon fill="#AA9943" points="28,4 28,8 24,8 24,12 28,12 32,12 32,8 32,4 "/><polygon fill="#C7B649" points="32,4 32,8 32,12 36,12 36,8 36,4 "/><polygon fill="#C7B649" points="28,0 24,0 24,4 20,4 20,8 16,8 12,8 12,12 16,12 20,12 20,16 24,16 24,12 24,8 28,8 28,4 32,4 32,0 	"/><rect x="12" y="16" fill="#7C7E3D" width="4" height="4"/><polygon fill="#93928A" points="16,12 12,12 8,12 8,16 12,16 16,16 20,16 20,12 "/><polygon fill="#95653D" points="16,24 12,24 12,28 16,28 20,28 20,24 "/><polygon fill="#7C6549" points="20,28 16,28 12,28 8,28 8,32 12,32 16,32 20,32 24,32 24,28 "/><rect x="20" y="20" opacity="0.4" fill="#705B47" width="4" height="4"/><polygon fill="#95653D" points="32,20 28,20 24,20 24,24 28,24 32,24 36,24 36,20 "/><polygon fill="#7C6549" points="16,20 12,20 12,24 16,24 20,24 20,20 "/></svg>