<svg xmlns="http://www.w3.org/2000/svg" width="93px" height="80px"><polygon opacity="0.4" fill="#999999" points="89,9 85,9 81,9 77,9 73,9 69,9 65,9 61,9 57,9 53,9 49,9 49,5 49,1 45,1 45,5 45,9 41,9 37,9 33,9 29,9 25,9 21,9 17,9 13,9 9,9 5,9 1,9 1,13 5,13 9,13 9,17 13,17 17,17 21,17 25,17 29,17 33,17 37,17 41,17 45,17 45,21 45,25 45,29 45,33 45,37 45,41 45,45 45,49 45,53 45,57 45,61 45,65 45,69 45,73 41,73 41,77 41,80 45,80 49,80 53,80 53,77 49,77 49,73 49,69 49,65 49,61 49,57 49,53 49,49 49,45 49,41 49,37 49,33 49,29 49,25 49,21 49,17 53,17 57,17 61,17 65,17 69,17 73,17 77,17 81,17 85,17 85,13 89,13 93,13 93,9 "/><polygon fill="#6D6C66" points="40,72 40,76 40,80 44,80 44,76 44,72 "/><rect x="44" y="12" fill="#7C6549" width="4" height="4"/><polygon fill="#6D6C66" points="48,76 44,76 44,80 48,80 52,80 52,76 "/><rect x="44" y="8" fill="#7C6549" width="4" height="4"/><rect x="44" y="4" fill="#897156" width="4" height="4"/><rect x="44" fill="#7C6549" width="4" height="4"/><rect x="44" y="40" fill="#937A60" width="4" height="4"/><rect x="44" y="36" fill="#897156" width="4" height="4"/><rect x="44" y="24" fill="#937A60" width="4" height="4"/><polygon fill="#897156" points="44,68 44,72 44,76 48,76 48,72 48,68 "/><rect x="44" y="64" fill="#937A60" width="4" height="4"/><polygon fill="#7C6549" points="44,16 44,20 44,24 48,24 48,20 48,16 "/><polygon fill="#7C6549" points="44,48 44,52 44,56 44,60 44,64 48,64 48,60 48,56 48,52 48,48 48,44 44,44 "/><polygon fill="#7C6549" points="44,32 44,36 48,36 48,32 48,28 44,28 "/><g><rect x="76" y="8" fill="#828077" width="4" height="4"/><polygon fill="#93928A" points="88,8 84,8 80,8 80,12 84,12 88,12 92,12 92,8"/><rect x="12" y="8" fill="#828077" width="4" height="4"/><polygon fill="#93928A" points="8,8 4,8 0,8 0,12 4,12 8,12 12,12 12,8"/><polygon fill="#93928A" points="68,8 64,8 60,8 56,8 52,8 52,12 56,12 60,12 64,12 68,12 72,12 72,8"/><rect x="68" y="12" fill="#C1B39F" width="4" height="4"/><polygon fill="#9A8D68" points="72,8 72,12 72,16 76,16 76,12 76,8"/><rect x="76" y="12" fill="#C1B39F" width="4" height="4"/><rect x="80" y="12" fill="#AFA594" width="4" height="4"/><rect x="40" y="12" fill="#C1B39F" width="4" height="4"/><polygon fill="#82817A" points="48,8 44,8 40,8 40,12 44,12 44,16 48,16 48,12 52,12 52,8"/><rect x="48" y="12" fill="#C1B39F" width="4" height="4"/><polygon fill="#AFA594" points="64,12 60,12 56,12 52,12 52,16 56,16 60,16 64,16 68,16 68,12"/><polygon fill="#9A8D68" points="16,8 16,12 16,16 20,16 20,12 20,8"/><rect x="20" y="12" fill="#C1B39F" width="4" height="4"/><rect x="8" y="12" fill="#AFA594" width="4" height="4"/><rect x="12" y="12" fill="#C1B39F" width="4" height="4"/><polygon fill="#93928A" points="36,8 32,8 28,8 24,8 20,8 20,12 24,12 28,12 32,12 36,12 40,12 40,8"/><polygon fill="#AFA594" points="36,12 32,12 28,12 24,12 24,16 28,16 32,16 36,16 40,16 40,12"/></g></svg>