<svg xmlns="http://www.w3.org/2000/svg" width="38px" height="38px"><g><g opacity="0.2"><rect x="2" y="26" fill="#999999" width="4" height="4"/><rect x="2" y="22" fill="#999999" width="4" height="4"/><rect x="2" y="18" fill="#999999" width="4" height="4"/><rect x="34" y="22" fill="#999999" width="4" height="4"/><rect x="34" y="18" fill="#999999" width="4" height="4"/><rect x="6" y="26" fill="#999999" width="4" height="4"/><rect x="10" y="26" fill="#999999" width="4" height="4"/><rect x="2" y="30" fill="#999999" width="4" height="4"/><rect x="10" y="30" fill="#999999" width="4" height="4"/><rect x="14" y="26" fill="#999999" width="4" height="4"/><rect x="18" y="26" fill="#999999" width="4" height="4"/><rect x="18" y="30" fill="#999999" width="4" height="4"/><rect x="18" y="34" fill="#999999" width="4" height="4"/><rect x="22" y="26" fill="#999999" width="4" height="4"/><rect x="14" y="30" fill="#999999" width="4" height="4"/><rect x="14" y="34" fill="#999999" width="4" height="4"/><rect x="22" y="30" fill="#999999" width="4" height="4"/><rect x="22" y="34" fill="#999999" width="4" height="4"/><rect x="26" y="26" fill="#999999" width="4" height="4"/><rect x="34" y="30" fill="#999999" width="4" height="4"/><rect x="26" y="30" fill="#999999" width="4" height="4"/><rect x="10" y="22" fill="#999999" width="4" height="4"/><rect x="14" y="22" fill="#999999" width="4" height="4"/><rect x="18" y="22" fill="#999999" width="4" height="4"/><rect x="22" y="22" fill="#999999" width="4" height="4"/><rect x="14" y="18" fill="#999999" width="4" height="4"/><rect x="10" y="18" fill="#999999" width="4" height="4"/><rect x="18" y="18" fill="#999999" width="4" height="4"/><rect x="22" y="18" fill="#999999" width="4" height="4"/><rect x="26" y="18" fill="#999999" width="4" height="4"/><rect x="14" y="14" fill="#999999" width="4" height="4"/><rect x="18" y="14" fill="#999999" width="4" height="4"/><rect x="22" y="14" fill="#999999" width="4" height="4"/><rect x="14" y="10" fill="#999999" width="4" height="4"/><rect x="18" y="10" fill="#999999" width="4" height="4"/><rect x="22" y="10" fill="#999999" width="4" height="4"/><rect x="18" y="6" fill="#999999" width="4" height="4"/><rect x="18" y="2" fill="#999999" width="4" height="4"/><rect x="26" y="22" fill="#999999" width="4" height="4"/><rect x="30" y="26" fill="#999999" width="4" height="4"/><rect x="34" y="26" fill="#999999" width="4" height="4"/></g><g><g><rect x="1" y="25" fill="#EAE7DC" width="4" height="4"/><rect x="1" y="21" fill="#EAE7DC" width="4" height="4"/><rect x="1" y="17" fill="#593325" width="4" height="4"/><rect x="33" y="21" fill="#EAE7DC" width="4" height="4"/><rect x="33" y="17" fill="#593325" width="4" height="4"/><rect x="5" y="25" fill="#EAE7DC" width="4" height="4"/><rect x="9" y="25" fill="#EAE7DC" width="4" height="4"/><rect x="1" y="29" fill="#BFA876" width="4" height="4"/><rect x="9" y="29" fill="#EAE7DC" width="4" height="4"/><rect x="13" y="25" fill="#283740" width="4" height="4"/><rect x="17" y="25" fill="#EAE7DC" width="4" height="4"/><rect x="17" y="29" fill="#EAE7DC" width="4" height="4"/><rect x="17" y="33" fill="#EAE7DC" width="4" height="4"/><rect x="21" y="25" fill="#283740" width="4" height="4"/><rect x="13" y="29" fill="#EAE7DC" width="4" height="4"/><rect x="13" y="33" fill="#BFA876" width="4" height="4"/><rect x="21" y="29" fill="#EAE7DC" width="4" height="4"/><rect x="21" y="33" fill="#BFA876" width="4" height="4"/><rect x="25" y="25" fill="#EAE7DC" width="4" height="4"/><rect x="33" y="29" fill="#BFA876" width="4" height="4"/><rect x="25" y="29" fill="#EAE7DC" width="4" height="4"/><rect x="9" y="21" fill="#EAE7DC" width="4" height="4"/><rect x="13" y="21" fill="#283740" width="4" height="4"/><rect x="17" y="21" fill="#283740" width="4" height="4"/><rect x="21" y="21" fill="#283740" width="4" height="4"/><rect x="13" y="17" fill="#283740" width="4" height="4"/><rect x="9" y="17" fill="#EAE7DC" width="4" height="4"/><rect x="17" y="17" fill="#283740" width="4" height="4"/><rect x="21" y="17" fill="#283740" width="4" height="4"/><rect x="25" y="17" fill="#EAE7DC" width="4" height="4"/><rect x="13" y="13" fill="#EAE7DC" width="4" height="4"/><rect x="17" y="13" fill="#283740" width="4" height="4"/><rect x="21" y="13" fill="#EAE7DC" width="4" height="4"/><rect x="13" y="9" fill="#EAE7DC" width="4" height="4"/><rect x="17" y="9" fill="#283740" width="4" height="4"/><rect x="21" y="9" fill="#EAE7DC" width="4" height="4"/><rect x="17" y="5" fill="#283740" width="4" height="4"/><rect x="17" y="1" fill="#283740" width="4" height="4"/><rect x="25" y="21" fill="#EAE7DC" width="4" height="4"/><rect x="29" y="25" fill="#EAE7DC" width="4" height="4"/><rect x="33" y="25" fill="#EAE7DC" width="4" height="4"/></g></g></g></svg>